<mxfile host="app.diagrams.net" modified="2024-03-22T11:35:47.507Z" agent="Mozilla/5.0 (Windows NT 10.0; Win64; x64) AppleWebKit/537.36 (KHTML, like Gecko) Chrome/122.0.0.0 Safari/537.36" etag="rKIt9cGeKO0vC3tZocUA" version="24.0.7" type="device" pages="8">
  <diagram name="RegistarUsuario" id="13e1069c-82ec-6db2-03f1-153e76fe0fe0">
    <mxGraphModel dx="1235" dy="614" grid="1" gridSize="10" guides="1" tooltips="1" connect="1" arrows="1" fold="1" page="1" pageScale="1" pageWidth="1100" pageHeight="850" background="none" math="0" shadow="0">
      <root>
        <mxCell id="0" />
        <mxCell id="1" parent="0" />
        <mxCell id="7baba1c4bc27f4b0-2" value=":Object" style="shape=umlLifeline;perimeter=lifelinePerimeter;whiteSpace=wrap;html=1;container=1;collapsible=0;recursiveResize=0;outlineConnect=0;rounded=1;shadow=0;comic=0;labelBackgroundColor=none;strokeWidth=1;fontFamily=Verdana;fontSize=12;align=center;" parent="1" vertex="1">
          <mxGeometry x="240" y="80" width="100" height="580" as="geometry" />
        </mxCell>
        <mxCell id="7baba1c4bc27f4b0-10" value="" style="html=1;points=[];perimeter=orthogonalPerimeter;rounded=0;shadow=0;comic=0;labelBackgroundColor=none;strokeWidth=1;fontFamily=Verdana;fontSize=12;align=center;" parent="7baba1c4bc27f4b0-2" vertex="1">
          <mxGeometry x="45" y="100" width="10" height="230" as="geometry" />
        </mxCell>
        <mxCell id="7baba1c4bc27f4b0-3" value=":Object" style="shape=umlLifeline;perimeter=lifelinePerimeter;whiteSpace=wrap;html=1;container=1;collapsible=0;recursiveResize=0;outlineConnect=0;rounded=1;shadow=0;comic=0;labelBackgroundColor=none;strokeWidth=1;fontFamily=Verdana;fontSize=12;align=center;" parent="1" vertex="1">
          <mxGeometry x="400" y="80" width="100" height="580" as="geometry" />
        </mxCell>
        <mxCell id="7baba1c4bc27f4b0-13" value="" style="html=1;points=[];perimeter=orthogonalPerimeter;rounded=0;shadow=0;comic=0;labelBackgroundColor=none;strokeWidth=1;fontFamily=Verdana;fontSize=12;align=center;" parent="7baba1c4bc27f4b0-3" vertex="1">
          <mxGeometry x="45" y="120" width="10" height="200" as="geometry" />
        </mxCell>
        <mxCell id="7baba1c4bc27f4b0-4" value=":Object" style="shape=umlLifeline;perimeter=lifelinePerimeter;whiteSpace=wrap;html=1;container=1;collapsible=0;recursiveResize=0;outlineConnect=0;rounded=1;shadow=0;comic=0;labelBackgroundColor=none;strokeWidth=1;fontFamily=Verdana;fontSize=12;align=center;" parent="1" vertex="1">
          <mxGeometry x="540" y="80" width="100" height="580" as="geometry" />
        </mxCell>
        <mxCell id="7baba1c4bc27f4b0-5" value=":Object" style="shape=umlLifeline;perimeter=lifelinePerimeter;whiteSpace=wrap;html=1;container=1;collapsible=0;recursiveResize=0;outlineConnect=0;rounded=1;shadow=0;comic=0;labelBackgroundColor=none;strokeWidth=1;fontFamily=Verdana;fontSize=12;align=center;" parent="1" vertex="1">
          <mxGeometry x="680" y="80" width="100" height="580" as="geometry" />
        </mxCell>
        <mxCell id="7baba1c4bc27f4b0-6" value=":Object" style="shape=umlLifeline;perimeter=lifelinePerimeter;whiteSpace=wrap;html=1;container=1;collapsible=0;recursiveResize=0;outlineConnect=0;rounded=1;shadow=0;comic=0;labelBackgroundColor=none;strokeWidth=1;fontFamily=Verdana;fontSize=12;align=center;" parent="1" vertex="1">
          <mxGeometry x="820" y="80" width="100" height="580" as="geometry" />
        </mxCell>
        <mxCell id="7baba1c4bc27f4b0-7" value=":Object" style="shape=umlLifeline;perimeter=lifelinePerimeter;whiteSpace=wrap;html=1;container=1;collapsible=0;recursiveResize=0;outlineConnect=0;rounded=1;shadow=0;comic=0;labelBackgroundColor=none;strokeWidth=1;fontFamily=Verdana;fontSize=12;align=center;" parent="1" vertex="1">
          <mxGeometry x="960" y="80" width="100" height="580" as="geometry" />
        </mxCell>
        <mxCell id="7baba1c4bc27f4b0-8" value=":Object" style="shape=umlLifeline;perimeter=lifelinePerimeter;whiteSpace=wrap;html=1;container=1;collapsible=0;recursiveResize=0;outlineConnect=0;rounded=1;shadow=0;comic=0;labelBackgroundColor=none;strokeWidth=1;fontFamily=Verdana;fontSize=12;align=center;" parent="1" vertex="1">
          <mxGeometry x="100" y="80" width="100" height="580" as="geometry" />
        </mxCell>
        <mxCell id="7baba1c4bc27f4b0-9" value="" style="html=1;points=[];perimeter=orthogonalPerimeter;rounded=0;shadow=0;comic=0;labelBackgroundColor=none;strokeWidth=1;fontFamily=Verdana;fontSize=12;align=center;" parent="7baba1c4bc27f4b0-8" vertex="1">
          <mxGeometry x="45" y="100" width="10" height="440" as="geometry" />
        </mxCell>
        <mxCell id="7baba1c4bc27f4b0-16" value="" style="html=1;points=[];perimeter=orthogonalPerimeter;rounded=0;shadow=0;comic=0;labelBackgroundColor=none;strokeWidth=1;fontFamily=Verdana;fontSize=12;align=center;" parent="1" vertex="1">
          <mxGeometry x="585" y="220" width="10" height="180" as="geometry" />
        </mxCell>
        <mxCell id="7baba1c4bc27f4b0-17" value="dispatch" style="html=1;verticalAlign=bottom;endArrow=block;labelBackgroundColor=none;fontFamily=Verdana;fontSize=12;edgeStyle=elbowEdgeStyle;elbow=vertical;" parent="1" source="7baba1c4bc27f4b0-13" target="7baba1c4bc27f4b0-16" edge="1">
          <mxGeometry relative="1" as="geometry">
            <mxPoint x="510" y="220" as="sourcePoint" />
            <Array as="points">
              <mxPoint x="460" y="220" />
            </Array>
          </mxGeometry>
        </mxCell>
        <mxCell id="7baba1c4bc27f4b0-19" value="" style="html=1;points=[];perimeter=orthogonalPerimeter;rounded=0;shadow=0;comic=0;labelBackgroundColor=none;strokeWidth=1;fontFamily=Verdana;fontSize=12;align=center;" parent="1" vertex="1">
          <mxGeometry x="725" y="230" width="10" height="40" as="geometry" />
        </mxCell>
        <mxCell id="7baba1c4bc27f4b0-20" value="dispatch" style="html=1;verticalAlign=bottom;endArrow=block;entryX=0;entryY=0;labelBackgroundColor=none;fontFamily=Verdana;fontSize=12;edgeStyle=elbowEdgeStyle;elbow=vertical;" parent="1" source="7baba1c4bc27f4b0-16" target="7baba1c4bc27f4b0-19" edge="1">
          <mxGeometry relative="1" as="geometry">
            <mxPoint x="650" y="230" as="sourcePoint" />
          </mxGeometry>
        </mxCell>
        <mxCell id="7baba1c4bc27f4b0-21" value="return" style="html=1;verticalAlign=bottom;endArrow=open;dashed=1;endSize=8;labelBackgroundColor=none;fontFamily=Verdana;fontSize=12;edgeStyle=elbowEdgeStyle;elbow=vertical;" parent="1" source="7baba1c4bc27f4b0-19" target="7baba1c4bc27f4b0-16" edge="1">
          <mxGeometry relative="1" as="geometry">
            <mxPoint x="650" y="306" as="targetPoint" />
            <Array as="points">
              <mxPoint x="670" y="260" />
              <mxPoint x="700" y="260" />
            </Array>
          </mxGeometry>
        </mxCell>
        <mxCell id="7baba1c4bc27f4b0-22" value="" style="html=1;points=[];perimeter=orthogonalPerimeter;rounded=0;shadow=0;comic=0;labelBackgroundColor=none;strokeWidth=1;fontFamily=Verdana;fontSize=12;align=center;" parent="1" vertex="1">
          <mxGeometry x="585" y="440" width="10" height="140" as="geometry" />
        </mxCell>
        <mxCell id="7baba1c4bc27f4b0-23" value="dispatch" style="html=1;verticalAlign=bottom;endArrow=block;entryX=0;entryY=0;labelBackgroundColor=none;fontFamily=Verdana;fontSize=12;" parent="1" source="7baba1c4bc27f4b0-9" target="7baba1c4bc27f4b0-22" edge="1">
          <mxGeometry relative="1" as="geometry">
            <mxPoint x="510" y="420" as="sourcePoint" />
          </mxGeometry>
        </mxCell>
        <mxCell id="7baba1c4bc27f4b0-25" value="" style="html=1;points=[];perimeter=orthogonalPerimeter;rounded=0;shadow=0;comic=0;labelBackgroundColor=none;strokeColor=#000000;strokeWidth=1;fillColor=#FFFFFF;fontFamily=Verdana;fontSize=12;fontColor=#000000;align=center;" parent="1" vertex="1">
          <mxGeometry x="1005" y="460" width="10" height="30" as="geometry" />
        </mxCell>
        <mxCell id="7baba1c4bc27f4b0-26" value="dispatch" style="html=1;verticalAlign=bottom;endArrow=block;entryX=0;entryY=0;labelBackgroundColor=none;fontFamily=Verdana;fontSize=12;" parent="1" source="7baba1c4bc27f4b0-22" target="7baba1c4bc27f4b0-25" edge="1">
          <mxGeometry relative="1" as="geometry">
            <mxPoint x="930" y="340" as="sourcePoint" />
          </mxGeometry>
        </mxCell>
        <mxCell id="7baba1c4bc27f4b0-27" value="return" style="html=1;verticalAlign=bottom;endArrow=open;dashed=1;endSize=8;exitX=0;exitY=0.95;labelBackgroundColor=none;fontFamily=Verdana;fontSize=12;" parent="1" source="7baba1c4bc27f4b0-25" target="7baba1c4bc27f4b0-22" edge="1">
          <mxGeometry relative="1" as="geometry">
            <mxPoint x="930" y="416" as="targetPoint" />
          </mxGeometry>
        </mxCell>
        <mxCell id="7baba1c4bc27f4b0-28" value="" style="html=1;points=[];perimeter=orthogonalPerimeter;rounded=0;shadow=0;comic=0;labelBackgroundColor=none;strokeWidth=1;fontFamily=Verdana;fontSize=12;align=center;" parent="1" vertex="1">
          <mxGeometry x="870" y="550" width="10" height="60" as="geometry" />
        </mxCell>
        <mxCell id="7baba1c4bc27f4b0-29" value="dispatch" style="html=1;verticalAlign=bottom;endArrow=block;entryX=0;entryY=0;labelBackgroundColor=none;fontFamily=Verdana;fontSize=12;edgeStyle=elbowEdgeStyle;elbow=vertical;" parent="1" source="7baba1c4bc27f4b0-37" target="7baba1c4bc27f4b0-28" edge="1">
          <mxGeometry relative="1" as="geometry">
            <mxPoint x="800" y="550" as="sourcePoint" />
          </mxGeometry>
        </mxCell>
        <mxCell id="7baba1c4bc27f4b0-30" value="return" style="html=1;verticalAlign=bottom;endArrow=open;dashed=1;endSize=8;labelBackgroundColor=none;fontFamily=Verdana;fontSize=12;edgeStyle=elbowEdgeStyle;elbow=vertical;" parent="1" source="7baba1c4bc27f4b0-28" target="7baba1c4bc27f4b0-9" edge="1">
          <mxGeometry relative="1" as="geometry">
            <mxPoint x="800" y="626" as="targetPoint" />
            <Array as="points">
              <mxPoint x="570" y="600" />
            </Array>
          </mxGeometry>
        </mxCell>
        <mxCell id="7baba1c4bc27f4b0-11" value="dispatch" style="html=1;verticalAlign=bottom;endArrow=block;entryX=0;entryY=0;labelBackgroundColor=none;fontFamily=Verdana;fontSize=12;edgeStyle=elbowEdgeStyle;elbow=vertical;" parent="1" source="7baba1c4bc27f4b0-9" target="7baba1c4bc27f4b0-10" edge="1">
          <mxGeometry relative="1" as="geometry">
            <mxPoint x="220" y="190" as="sourcePoint" />
          </mxGeometry>
        </mxCell>
        <mxCell id="7baba1c4bc27f4b0-14" value="dispatch" style="html=1;verticalAlign=bottom;endArrow=block;entryX=0;entryY=0;labelBackgroundColor=none;fontFamily=Verdana;fontSize=12;edgeStyle=elbowEdgeStyle;elbow=vertical;" parent="1" source="7baba1c4bc27f4b0-10" target="7baba1c4bc27f4b0-13" edge="1">
          <mxGeometry relative="1" as="geometry">
            <mxPoint x="370" y="200" as="sourcePoint" />
          </mxGeometry>
        </mxCell>
        <mxCell id="7baba1c4bc27f4b0-34" value="" style="html=1;points=[];perimeter=orthogonalPerimeter;rounded=0;shadow=0;comic=0;labelBackgroundColor=none;strokeWidth=1;fontFamily=Verdana;fontSize=12;align=center;" parent="1" vertex="1">
          <mxGeometry x="590" y="300" width="10" height="70" as="geometry" />
        </mxCell>
        <mxCell id="7baba1c4bc27f4b0-35" value="dispatch" style="html=1;verticalAlign=bottom;endArrow=block;labelBackgroundColor=none;fontFamily=Verdana;fontSize=12;elbow=vertical;edgeStyle=orthogonalEdgeStyle;curved=1;entryX=1;entryY=0.286;entryPerimeter=0;exitX=1.038;exitY=0.345;exitPerimeter=0;" parent="1" source="7baba1c4bc27f4b0-16" target="7baba1c4bc27f4b0-34" edge="1">
          <mxGeometry relative="1" as="geometry">
            <mxPoint x="465" y="230" as="sourcePoint" />
            <mxPoint x="595" y="230" as="targetPoint" />
            <Array as="points">
              <mxPoint x="650" y="282" />
              <mxPoint x="650" y="320" />
            </Array>
          </mxGeometry>
        </mxCell>
        <mxCell id="7baba1c4bc27f4b0-36" value="dispatch" style="html=1;verticalAlign=bottom;endArrow=block;labelBackgroundColor=none;fontFamily=Verdana;fontSize=12;elbow=vertical;edgeStyle=orthogonalEdgeStyle;curved=1;exitX=1.066;exitY=0.713;exitPerimeter=0;" parent="1" source="7baba1c4bc27f4b0-34" edge="1">
          <mxGeometry relative="1" as="geometry">
            <mxPoint x="610.3333333333333" y="350" as="sourcePoint" />
            <mxPoint x="595" y="389" as="targetPoint" />
            <Array as="points">
              <mxPoint x="650" y="350" />
              <mxPoint x="650" y="389" />
            </Array>
          </mxGeometry>
        </mxCell>
        <mxCell id="7baba1c4bc27f4b0-37" value="" style="html=1;points=[];perimeter=orthogonalPerimeter;rounded=0;shadow=0;comic=0;labelBackgroundColor=none;strokeWidth=1;fontFamily=Verdana;fontSize=12;align=center;" parent="1" vertex="1">
          <mxGeometry x="590" y="520" width="10" height="40" as="geometry" />
        </mxCell>
        <mxCell id="7baba1c4bc27f4b0-39" value="dispatch" style="html=1;verticalAlign=bottom;endArrow=block;labelBackgroundColor=none;fontFamily=Verdana;fontSize=12;elbow=vertical;edgeStyle=orthogonalEdgeStyle;curved=1;entryX=1;entryY=0.286;entryPerimeter=0;exitX=1.038;exitY=0.345;exitPerimeter=0;" parent="1" edge="1">
          <mxGeometry relative="1" as="geometry">
            <mxPoint x="595.3333333333335" y="501" as="sourcePoint" />
            <mxPoint x="600.3333333333335" y="539.3333333333334" as="targetPoint" />
            <Array as="points">
              <mxPoint x="650" y="501" />
              <mxPoint x="650" y="539" />
            </Array>
          </mxGeometry>
        </mxCell>
        <mxCell id="7baba1c4bc27f4b0-40" value="Note" style="shape=note;whiteSpace=wrap;html=1;size=14;verticalAlign=top;align=left;spacingTop=-6;rounded=0;shadow=0;comic=0;labelBackgroundColor=none;strokeWidth=1;fontFamily=Verdana;fontSize=12" parent="1" vertex="1">
          <mxGeometry x="100" y="30" width="100" height="35" as="geometry" />
        </mxCell>
        <mxCell id="7baba1c4bc27f4b0-41" value="Note" style="shape=note;whiteSpace=wrap;html=1;size=14;verticalAlign=top;align=left;spacingTop=-6;rounded=0;shadow=0;comic=0;labelBackgroundColor=none;strokeWidth=1;fontFamily=Verdana;fontSize=12" parent="1" vertex="1">
          <mxGeometry x="240" y="30" width="100" height="35" as="geometry" />
        </mxCell>
        <mxCell id="7baba1c4bc27f4b0-42" value="Note" style="shape=note;whiteSpace=wrap;html=1;size=14;verticalAlign=top;align=left;spacingTop=-6;rounded=0;shadow=0;comic=0;labelBackgroundColor=none;strokeWidth=1;fontFamily=Verdana;fontSize=12" parent="1" vertex="1">
          <mxGeometry x="400" y="30" width="100" height="35" as="geometry" />
        </mxCell>
        <mxCell id="7baba1c4bc27f4b0-43" value="Note" style="shape=note;whiteSpace=wrap;html=1;size=14;verticalAlign=top;align=left;spacingTop=-6;rounded=0;shadow=0;comic=0;labelBackgroundColor=none;strokeWidth=1;fontFamily=Verdana;fontSize=12" parent="1" vertex="1">
          <mxGeometry x="540" y="30" width="100" height="35" as="geometry" />
        </mxCell>
        <mxCell id="7baba1c4bc27f4b0-44" value="Note" style="shape=note;whiteSpace=wrap;html=1;size=14;verticalAlign=top;align=left;spacingTop=-6;rounded=0;shadow=0;comic=0;labelBackgroundColor=none;strokeWidth=1;fontFamily=Verdana;fontSize=12" parent="1" vertex="1">
          <mxGeometry x="680" y="30" width="100" height="35" as="geometry" />
        </mxCell>
        <mxCell id="7baba1c4bc27f4b0-45" value="Note" style="shape=note;whiteSpace=wrap;html=1;size=14;verticalAlign=top;align=left;spacingTop=-6;rounded=0;shadow=0;comic=0;labelBackgroundColor=none;strokeWidth=1;fontFamily=Verdana;fontSize=12" parent="1" vertex="1">
          <mxGeometry x="820" y="30" width="100" height="35" as="geometry" />
        </mxCell>
        <mxCell id="7baba1c4bc27f4b0-46" value="Note" style="shape=note;whiteSpace=wrap;html=1;size=14;verticalAlign=top;align=left;spacingTop=-6;rounded=0;shadow=0;comic=0;labelBackgroundColor=none;strokeWidth=1;fontFamily=Verdana;fontSize=12" parent="1" vertex="1">
          <mxGeometry x="960" y="30" width="100" height="35" as="geometry" />
        </mxCell>
        <mxCell id="uqET6X0cvn27oT400hmn-7" value="UserController" style="shape=umlLifeline;perimeter=lifelinePerimeter;whiteSpace=wrap;html=1;container=1;collapsible=0;recursiveResize=0;outlineConnect=0;rounded=1;shadow=0;comic=0;labelBackgroundColor=none;strokeWidth=1;fontFamily=Verdana;fontSize=12;align=center;fillColor=#d5e8d4;strokeColor=#82b366;" parent="1" vertex="1">
          <mxGeometry x="525" y="920" width="100" height="710" as="geometry" />
        </mxCell>
        <mxCell id="uqET6X0cvn27oT400hmn-8" value="" style="html=1;points=[];perimeter=orthogonalPerimeter;rounded=0;shadow=0;comic=0;labelBackgroundColor=none;strokeWidth=1;fontFamily=Verdana;fontSize=12;align=center;fillColor=#d5e8d4;strokeColor=#82b366;" parent="uqET6X0cvn27oT400hmn-7" vertex="1">
          <mxGeometry x="45" y="100" width="10" height="610" as="geometry" />
        </mxCell>
        <mxCell id="uqET6X0cvn27oT400hmn-11" value="1. registrarUsuario(String nombre, String apellido...)" style="html=1;verticalAlign=bottom;endArrow=block;entryX=0;entryY=0;labelBackgroundColor=none;fontFamily=Verdana;fontSize=12;edgeStyle=elbowEdgeStyle;elbow=vertical;" parent="1" edge="1">
          <mxGeometry relative="1" as="geometry">
            <mxPoint x="215" y="1040" as="sourcePoint" />
            <mxPoint x="570" y="1040" as="targetPoint" />
          </mxGeometry>
        </mxCell>
        <mxCell id="uqET6X0cvn27oT400hmn-10" value="" style="html=1;points=[];perimeter=orthogonalPerimeter;rounded=0;shadow=0;comic=0;labelBackgroundColor=none;strokeWidth=1;fontFamily=Verdana;fontSize=12;align=center;fillColor=#d5e8d4;strokeColor=#82b366;" parent="1" vertex="1">
          <mxGeometry x="205" y="1020" width="10" height="610" as="geometry" />
        </mxCell>
        <mxCell id="uqET6X0cvn27oT400hmn-14" value="Usuario" style="shape=umlActor;verticalLabelPosition=bottom;verticalAlign=top;html=1;outlineConnect=0;fillColor=#d5e8d4;strokeColor=#82b366;" parent="1" vertex="1">
          <mxGeometry x="195" y="870" width="30" height="60" as="geometry" />
        </mxCell>
        <mxCell id="uqET6X0cvn27oT400hmn-15" value="" style="endArrow=none;dashed=1;html=1;rounded=0;exitX=0.42;exitY=-0.005;exitDx=0;exitDy=0;exitPerimeter=0;" parent="1" source="uqET6X0cvn27oT400hmn-10" edge="1">
          <mxGeometry width="50" height="50" relative="1" as="geometry">
            <mxPoint x="400" y="1070" as="sourcePoint" />
            <mxPoint x="209" y="960" as="targetPoint" />
          </mxGeometry>
        </mxCell>
        <mxCell id="uqET6X0cvn27oT400hmn-18" value="SGBD" style="shape=umlLifeline;perimeter=lifelinePerimeter;whiteSpace=wrap;html=1;container=1;collapsible=0;recursiveResize=0;outlineConnect=0;rounded=1;shadow=0;comic=0;labelBackgroundColor=none;strokeWidth=1;fontFamily=Verdana;fontSize=12;align=center;fillColor=#d5e8d4;strokeColor=#82b366;" parent="1" vertex="1">
          <mxGeometry x="765" y="920" width="100" height="580" as="geometry" />
        </mxCell>
        <mxCell id="uqET6X0cvn27oT400hmn-19" value="" style="html=1;points=[];perimeter=orthogonalPerimeter;rounded=0;shadow=0;comic=0;labelBackgroundColor=none;strokeWidth=1;fontFamily=Verdana;fontSize=12;align=center;fillColor=#d5e8d4;strokeColor=#82b366;" parent="uqET6X0cvn27oT400hmn-18" vertex="1">
          <mxGeometry x="45" y="180" width="10" height="340" as="geometry" />
        </mxCell>
        <mxCell id="uqET6X0cvn27oT400hmn-20" value="1.1 existeUsuario(String correo)" style="html=1;verticalAlign=bottom;endArrow=block;labelBackgroundColor=none;fontFamily=Verdana;fontSize=12;edgeStyle=elbowEdgeStyle;elbow=vertical;" parent="1" target="uqET6X0cvn27oT400hmn-18" edge="1">
          <mxGeometry relative="1" as="geometry">
            <mxPoint x="580" y="1140" as="sourcePoint" />
            <mxPoint x="935" y="1090" as="targetPoint" />
            <mxPoint as="offset" />
          </mxGeometry>
        </mxCell>
        <mxCell id="uqET6X0cvn27oT400hmn-22" value="1.2 existeUsuario" style="html=1;verticalAlign=bottom;endArrow=open;dashed=1;endSize=8;exitX=-0.16;exitY=0.298;labelBackgroundColor=none;fontFamily=Verdana;fontSize=12;exitDx=0;exitDy=0;exitPerimeter=0;" parent="1" source="uqET6X0cvn27oT400hmn-19" edge="1">
          <mxGeometry relative="1" as="geometry">
            <mxPoint x="580" y="1200" as="targetPoint" />
            <mxPoint x="793.0999999999999" y="1200" as="sourcePoint" />
          </mxGeometry>
        </mxCell>
        <mxCell id="uqET6X0cvn27oT400hmn-23" value="opt" style="shape=umlFrame;whiteSpace=wrap;html=1;pointerEvents=0;" parent="1" vertex="1">
          <mxGeometry x="170" y="1250" width="720" height="430" as="geometry" />
        </mxCell>
        <mxCell id="uqET6X0cvn27oT400hmn-24" value="[!existeUsuario]" style="text;html=1;align=center;verticalAlign=middle;whiteSpace=wrap;rounded=0;" parent="1" vertex="1">
          <mxGeometry x="250" y="1260" width="60" height="30" as="geometry" />
        </mxCell>
        <mxCell id="uqET6X0cvn27oT400hmn-25" value="1.3 crearUsuario(String nombre...)" style="html=1;verticalAlign=bottom;endArrow=block;labelBackgroundColor=none;fontFamily=Verdana;fontSize=12;edgeStyle=elbowEdgeStyle;elbow=vertical;entryX=0.16;entryY=0.622;entryDx=0;entryDy=0;entryPerimeter=0;" parent="1" target="uqET6X0cvn27oT400hmn-19" edge="1">
          <mxGeometry relative="1" as="geometry">
            <mxPoint x="580" y="1310" as="sourcePoint" />
            <mxPoint x="790" y="1310" as="targetPoint" />
            <mxPoint as="offset" />
          </mxGeometry>
        </mxCell>
        <mxCell id="uqET6X0cvn27oT400hmn-26" value="1.4 usuarioCreado" style="html=1;verticalAlign=bottom;endArrow=open;dashed=1;endSize=8;exitX=-0.16;exitY=0.298;labelBackgroundColor=none;fontFamily=Verdana;fontSize=12;exitDx=0;exitDy=0;exitPerimeter=0;" parent="1" edge="1">
          <mxGeometry relative="1" as="geometry">
            <mxPoint x="580" y="1360" as="targetPoint" />
            <mxPoint x="808" y="1361" as="sourcePoint" />
          </mxGeometry>
        </mxCell>
        <mxCell id="uqET6X0cvn27oT400hmn-27" value="1.5 carteraCreada" style="html=1;verticalAlign=bottom;endArrow=open;dashed=1;endSize=8;exitX=-0.16;exitY=0.298;labelBackgroundColor=none;fontFamily=Verdana;fontSize=12;exitDx=0;exitDy=0;exitPerimeter=0;" parent="1" edge="1">
          <mxGeometry relative="1" as="geometry">
            <mxPoint x="580" y="1394" as="targetPoint" />
            <mxPoint x="808" y="1395" as="sourcePoint" />
          </mxGeometry>
        </mxCell>
        <mxCell id="uqET6X0cvn27oT400hmn-28" value="1.6 usuarioCreado" style="html=1;verticalAlign=bottom;endArrow=open;dashed=1;endSize=8;exitX=-0.16;exitY=0.298;labelBackgroundColor=none;fontFamily=Verdana;fontSize=12;exitDx=0;exitDy=0;exitPerimeter=0;" parent="1" target="uqET6X0cvn27oT400hmn-10" edge="1">
          <mxGeometry relative="1" as="geometry">
            <mxPoint x="340" y="1430" as="targetPoint" />
            <mxPoint x="568" y="1431" as="sourcePoint" />
          </mxGeometry>
        </mxCell>
        <mxCell id="uqET6X0cvn27oT400hmn-29" value="" style="endArrow=none;dashed=1;html=1;rounded=0;entryX=1.002;entryY=0.698;entryDx=0;entryDy=0;entryPerimeter=0;" parent="1" target="uqET6X0cvn27oT400hmn-23" edge="1">
          <mxGeometry width="50" height="50" relative="1" as="geometry">
            <mxPoint x="170" y="1550" as="sourcePoint" />
            <mxPoint x="170" y="1760" as="targetPoint" />
          </mxGeometry>
        </mxCell>
        <mxCell id="uqET6X0cvn27oT400hmn-30" value="[existeUsuario]" style="text;html=1;align=center;verticalAlign=middle;whiteSpace=wrap;rounded=0;" parent="1" vertex="1">
          <mxGeometry x="240" y="1550" width="60" height="30" as="geometry" />
        </mxCell>
        <mxCell id="uqET6X0cvn27oT400hmn-31" value="1.6 error(&quot;Ya existe un usuario con este correo &quot;)" style="html=1;verticalAlign=bottom;endArrow=open;dashed=1;endSize=8;exitX=-0.16;exitY=0.298;labelBackgroundColor=none;fontFamily=Verdana;fontSize=12;exitDx=0;exitDy=0;exitPerimeter=0;" parent="1" edge="1">
          <mxGeometry relative="1" as="geometry">
            <mxPoint x="215" y="1600" as="targetPoint" />
            <mxPoint x="568" y="1600" as="sourcePoint" />
          </mxGeometry>
        </mxCell>
      </root>
    </mxGraphModel>
  </diagram>
  <diagram id="LmvpPWE1CyJ07y73ZCZf" name="IniciarSesion">
    <mxGraphModel dx="1050" dy="522" grid="1" gridSize="10" guides="1" tooltips="1" connect="1" arrows="1" fold="1" page="1" pageScale="1" pageWidth="827" pageHeight="1169" math="0" shadow="0">
      <root>
        <mxCell id="0" />
        <mxCell id="1" parent="0" />
        <mxCell id="ww7ev3BR5_Vv2-_Ne-41-1" value="UserController" style="shape=umlLifeline;perimeter=lifelinePerimeter;whiteSpace=wrap;html=1;container=1;collapsible=0;recursiveResize=0;outlineConnect=0;rounded=1;shadow=0;comic=0;labelBackgroundColor=none;strokeWidth=1;fontFamily=Verdana;fontSize=12;align=center;fillColor=#d5e8d4;strokeColor=#82b366;" parent="1" vertex="1">
          <mxGeometry x="395" y="220" width="100" height="710" as="geometry" />
        </mxCell>
        <mxCell id="ww7ev3BR5_Vv2-_Ne-41-2" value="" style="html=1;points=[];perimeter=orthogonalPerimeter;rounded=0;shadow=0;comic=0;labelBackgroundColor=none;strokeWidth=1;fontFamily=Verdana;fontSize=12;align=center;fillColor=#d5e8d4;strokeColor=#82b366;" parent="ww7ev3BR5_Vv2-_Ne-41-1" vertex="1">
          <mxGeometry x="45" y="100" width="10" height="610" as="geometry" />
        </mxCell>
        <mxCell id="ww7ev3BR5_Vv2-_Ne-41-3" value="1. iniciarUsuario(String correo, String contraseña...)" style="html=1;verticalAlign=bottom;endArrow=block;entryX=0;entryY=0;labelBackgroundColor=none;fontFamily=Verdana;fontSize=12;edgeStyle=elbowEdgeStyle;elbow=vertical;" parent="1" edge="1">
          <mxGeometry relative="1" as="geometry">
            <mxPoint x="85" y="340" as="sourcePoint" />
            <mxPoint x="440" y="340" as="targetPoint" />
          </mxGeometry>
        </mxCell>
        <mxCell id="ww7ev3BR5_Vv2-_Ne-41-4" value="" style="html=1;points=[];perimeter=orthogonalPerimeter;rounded=0;shadow=0;comic=0;labelBackgroundColor=none;strokeWidth=1;fontFamily=Verdana;fontSize=12;align=center;fillColor=#d5e8d4;strokeColor=#82b366;" parent="1" vertex="1">
          <mxGeometry x="75" y="320" width="10" height="610" as="geometry" />
        </mxCell>
        <mxCell id="ww7ev3BR5_Vv2-_Ne-41-5" value="Usuario" style="shape=umlActor;verticalLabelPosition=bottom;verticalAlign=top;html=1;outlineConnect=0;fillColor=#d5e8d4;strokeColor=#82b366;" parent="1" vertex="1">
          <mxGeometry x="65" y="170" width="30" height="60" as="geometry" />
        </mxCell>
        <mxCell id="ww7ev3BR5_Vv2-_Ne-41-6" value="" style="endArrow=none;dashed=1;html=1;rounded=0;exitX=0.42;exitY=-0.005;exitDx=0;exitDy=0;exitPerimeter=0;" parent="1" source="ww7ev3BR5_Vv2-_Ne-41-4" edge="1">
          <mxGeometry width="50" height="50" relative="1" as="geometry">
            <mxPoint x="270" y="370" as="sourcePoint" />
            <mxPoint x="79" y="260" as="targetPoint" />
          </mxGeometry>
        </mxCell>
        <mxCell id="ww7ev3BR5_Vv2-_Ne-41-7" value="SGBD" style="shape=umlLifeline;perimeter=lifelinePerimeter;whiteSpace=wrap;html=1;container=1;collapsible=0;recursiveResize=0;outlineConnect=0;rounded=1;shadow=0;comic=0;labelBackgroundColor=none;strokeWidth=1;fontFamily=Verdana;fontSize=12;align=center;fillColor=#d5e8d4;strokeColor=#82b366;" parent="1" vertex="1">
          <mxGeometry x="660" y="220" width="100" height="580" as="geometry" />
        </mxCell>
        <mxCell id="ww7ev3BR5_Vv2-_Ne-41-8" value="" style="html=1;points=[];perimeter=orthogonalPerimeter;rounded=0;shadow=0;comic=0;labelBackgroundColor=none;strokeWidth=1;fontFamily=Verdana;fontSize=12;align=center;fillColor=#d5e8d4;strokeColor=#82b366;" parent="ww7ev3BR5_Vv2-_Ne-41-7" vertex="1">
          <mxGeometry x="45" y="180" width="10" height="340" as="geometry" />
        </mxCell>
        <mxCell id="ww7ev3BR5_Vv2-_Ne-41-9" value="1.1 existeUsuario(String correo)" style="html=1;verticalAlign=bottom;endArrow=block;labelBackgroundColor=none;fontFamily=Verdana;fontSize=12;edgeStyle=elbowEdgeStyle;elbow=vertical;" parent="1" target="ww7ev3BR5_Vv2-_Ne-41-7" edge="1">
          <mxGeometry relative="1" as="geometry">
            <mxPoint x="450" y="440" as="sourcePoint" />
            <mxPoint x="805" y="390" as="targetPoint" />
            <mxPoint as="offset" />
          </mxGeometry>
        </mxCell>
        <mxCell id="ww7ev3BR5_Vv2-_Ne-41-10" value="1.2 existeUsuario" style="html=1;verticalAlign=bottom;endArrow=open;dashed=1;endSize=8;exitX=-0.16;exitY=0.298;labelBackgroundColor=none;fontFamily=Verdana;fontSize=12;exitDx=0;exitDy=0;exitPerimeter=0;" parent="1" source="ww7ev3BR5_Vv2-_Ne-41-8" edge="1">
          <mxGeometry relative="1" as="geometry">
            <mxPoint x="450" y="500" as="targetPoint" />
            <mxPoint x="663.0999999999999" y="500" as="sourcePoint" />
          </mxGeometry>
        </mxCell>
        <mxCell id="ww7ev3BR5_Vv2-_Ne-41-11" value="opt" style="shape=umlFrame;whiteSpace=wrap;html=1;pointerEvents=0;" parent="1" vertex="1">
          <mxGeometry x="40" y="620" width="720" height="360" as="geometry" />
        </mxCell>
        <mxCell id="ww7ev3BR5_Vv2-_Ne-41-12" value="[existeUsuario]&amp;nbsp;&amp;amp;&amp;amp; [claveCorrecta]" style="text;html=1;align=center;verticalAlign=middle;whiteSpace=wrap;rounded=0;" parent="1" vertex="1">
          <mxGeometry x="120" y="630" width="160" height="30" as="geometry" />
        </mxCell>
        <mxCell id="ww7ev3BR5_Vv2-_Ne-41-13" value="1.3 checkPassword(String contraseña)" style="html=1;verticalAlign=bottom;endArrow=block;labelBackgroundColor=none;fontFamily=Verdana;fontSize=12;edgeStyle=elbowEdgeStyle;elbow=vertical;entryX=-0.182;entryY=0.618;entryDx=0;entryDy=0;entryPerimeter=0;" parent="1" edge="1">
          <mxGeometry relative="1" as="geometry">
            <mxPoint x="450" y="540" as="sourcePoint" />
            <mxPoint x="703.1800000000001" y="540.1199999999999" as="targetPoint" />
            <mxPoint as="offset" />
          </mxGeometry>
        </mxCell>
        <mxCell id="ww7ev3BR5_Vv2-_Ne-41-14" value="1.4 claveCorrecta" style="html=1;verticalAlign=bottom;endArrow=open;dashed=1;endSize=8;exitX=-0.182;exitY=0.77;labelBackgroundColor=none;fontFamily=Verdana;fontSize=12;exitDx=0;exitDy=0;exitPerimeter=0;" parent="1" edge="1">
          <mxGeometry relative="1" as="geometry">
            <mxPoint x="450" y="574.1" as="targetPoint" />
            <mxPoint x="703.1800000000001" y="575.9000000000002" as="sourcePoint" />
          </mxGeometry>
        </mxCell>
        <mxCell id="ww7ev3BR5_Vv2-_Ne-41-16" value="1.5 success" style="html=1;verticalAlign=bottom;endArrow=open;dashed=1;endSize=8;exitX=-0.16;exitY=0.298;labelBackgroundColor=none;fontFamily=Verdana;fontSize=12;exitDx=0;exitDy=0;exitPerimeter=0;" parent="1" target="ww7ev3BR5_Vv2-_Ne-41-4" edge="1">
          <mxGeometry relative="1" as="geometry">
            <mxPoint x="210" y="730" as="targetPoint" />
            <mxPoint x="438" y="731" as="sourcePoint" />
          </mxGeometry>
        </mxCell>
        <mxCell id="ww7ev3BR5_Vv2-_Ne-41-17" value="" style="endArrow=none;dashed=1;html=1;rounded=0;entryX=1.003;entryY=0.587;entryDx=0;entryDy=0;entryPerimeter=0;exitX=0;exitY=0.589;exitDx=0;exitDy=0;exitPerimeter=0;" parent="1" source="ww7ev3BR5_Vv2-_Ne-41-11" target="ww7ev3BR5_Vv2-_Ne-41-11" edge="1">
          <mxGeometry width="50" height="50" relative="1" as="geometry">
            <mxPoint x="40" y="850" as="sourcePoint" />
            <mxPoint x="40" y="1060" as="targetPoint" />
          </mxGeometry>
        </mxCell>
        <mxCell id="ww7ev3BR5_Vv2-_Ne-41-19" value="1.6 error(&quot;Credenciales incorrectas.&quot;)" style="html=1;verticalAlign=bottom;endArrow=open;dashed=1;endSize=8;exitX=-0.16;exitY=0.298;labelBackgroundColor=none;fontFamily=Verdana;fontSize=12;exitDx=0;exitDy=0;exitPerimeter=0;" parent="1" edge="1">
          <mxGeometry relative="1" as="geometry">
            <mxPoint x="85" y="900" as="targetPoint" />
            <mxPoint x="438" y="900" as="sourcePoint" />
          </mxGeometry>
        </mxCell>
        <mxCell id="ww7ev3BR5_Vv2-_Ne-41-20" value="[!existeUsuario] ||[!claveCorrecta]" style="text;html=1;align=center;verticalAlign=middle;whiteSpace=wrap;rounded=0;" parent="1" vertex="1">
          <mxGeometry x="75" y="840" width="160" height="30" as="geometry" />
        </mxCell>
      </root>
    </mxGraphModel>
  </diagram>
  <diagram id="qAh8oyNtpigQKb6K8JKF" name="RecuperarClave">
    <mxGraphModel dx="875" dy="435" grid="1" gridSize="10" guides="1" tooltips="1" connect="1" arrows="1" fold="1" page="1" pageScale="1" pageWidth="827" pageHeight="1169" math="0" shadow="0">
      <root>
        <mxCell id="0" />
        <mxCell id="1" parent="0" />
        <mxCell id="URMRlHWH6kZLgTgrrzF5-1" value="UserController" style="shape=umlLifeline;perimeter=lifelinePerimeter;whiteSpace=wrap;html=1;container=1;collapsible=0;recursiveResize=0;outlineConnect=0;rounded=1;shadow=0;comic=0;labelBackgroundColor=none;strokeWidth=1;fontFamily=Verdana;fontSize=12;align=center;fillColor=#d5e8d4;strokeColor=#82b366;" parent="1" vertex="1">
          <mxGeometry x="395" y="220" width="100" height="860" as="geometry" />
        </mxCell>
        <mxCell id="URMRlHWH6kZLgTgrrzF5-2" value="" style="html=1;points=[];perimeter=orthogonalPerimeter;rounded=0;shadow=0;comic=0;labelBackgroundColor=none;strokeWidth=1;fontFamily=Verdana;fontSize=12;align=center;fillColor=#d5e8d4;strokeColor=#82b366;" parent="URMRlHWH6kZLgTgrrzF5-1" vertex="1">
          <mxGeometry x="45" y="100" width="10" height="760" as="geometry" />
        </mxCell>
        <mxCell id="URMRlHWH6kZLgTgrrzF5-3" value="1.&amp;nbsp;solicitarResetPassword&lt;span style=&quot;background-color: initial;&quot;&gt;(String correo)&lt;/span&gt;" style="html=1;verticalAlign=bottom;endArrow=block;entryX=0;entryY=0;labelBackgroundColor=none;fontFamily=Verdana;fontSize=12;edgeStyle=elbowEdgeStyle;elbow=vertical;" parent="1" edge="1">
          <mxGeometry relative="1" as="geometry">
            <mxPoint x="85" y="340" as="sourcePoint" />
            <mxPoint x="440" y="340" as="targetPoint" />
          </mxGeometry>
        </mxCell>
        <mxCell id="URMRlHWH6kZLgTgrrzF5-4" value="" style="html=1;points=[];perimeter=orthogonalPerimeter;rounded=0;shadow=0;comic=0;labelBackgroundColor=none;strokeWidth=1;fontFamily=Verdana;fontSize=12;align=center;fillColor=#d5e8d4;strokeColor=#82b366;" parent="1" vertex="1">
          <mxGeometry x="75" y="320" width="10" height="770" as="geometry" />
        </mxCell>
        <mxCell id="URMRlHWH6kZLgTgrrzF5-5" value="Usuario" style="shape=umlActor;verticalLabelPosition=bottom;verticalAlign=top;html=1;outlineConnect=0;fillColor=#d5e8d4;strokeColor=#82b366;" parent="1" vertex="1">
          <mxGeometry x="65" y="170" width="30" height="60" as="geometry" />
        </mxCell>
        <mxCell id="URMRlHWH6kZLgTgrrzF5-6" value="" style="endArrow=none;dashed=1;html=1;rounded=0;exitX=0.42;exitY=-0.005;exitDx=0;exitDy=0;exitPerimeter=0;" parent="1" source="URMRlHWH6kZLgTgrrzF5-4" edge="1">
          <mxGeometry width="50" height="50" relative="1" as="geometry">
            <mxPoint x="270" y="370" as="sourcePoint" />
            <mxPoint x="79" y="260" as="targetPoint" />
          </mxGeometry>
        </mxCell>
        <mxCell id="URMRlHWH6kZLgTgrrzF5-7" value="SGBD" style="shape=umlLifeline;perimeter=lifelinePerimeter;whiteSpace=wrap;html=1;container=1;collapsible=0;recursiveResize=0;outlineConnect=0;rounded=1;shadow=0;comic=0;labelBackgroundColor=none;strokeWidth=1;fontFamily=Verdana;fontSize=12;align=center;fillColor=#d5e8d4;strokeColor=#82b366;" parent="1" vertex="1">
          <mxGeometry x="660" y="220" width="100" height="850" as="geometry" />
        </mxCell>
        <mxCell id="URMRlHWH6kZLgTgrrzF5-8" value="" style="html=1;points=[];perimeter=orthogonalPerimeter;rounded=0;shadow=0;comic=0;labelBackgroundColor=none;strokeWidth=1;fontFamily=Verdana;fontSize=12;align=center;fillColor=#d5e8d4;strokeColor=#82b366;" parent="URMRlHWH6kZLgTgrrzF5-7" vertex="1">
          <mxGeometry x="45" y="180" width="10" height="670" as="geometry" />
        </mxCell>
        <mxCell id="URMRlHWH6kZLgTgrrzF5-9" value="1.1 existeUsuario(String correo)" style="html=1;verticalAlign=bottom;endArrow=block;labelBackgroundColor=none;fontFamily=Verdana;fontSize=12;edgeStyle=elbowEdgeStyle;elbow=vertical;" parent="1" edge="1">
          <mxGeometry relative="1" as="geometry">
            <mxPoint x="450" y="410" as="sourcePoint" />
            <mxPoint x="709.4999999999998" y="410.1428571428571" as="targetPoint" />
            <mxPoint as="offset" />
          </mxGeometry>
        </mxCell>
        <mxCell id="URMRlHWH6kZLgTgrrzF5-10" value="1.2 existeUsuario" style="html=1;verticalAlign=bottom;endArrow=open;dashed=1;endSize=8;exitX=-0.16;exitY=0.298;labelBackgroundColor=none;fontFamily=Verdana;fontSize=12;exitDx=0;exitDy=0;exitPerimeter=0;" parent="1" edge="1">
          <mxGeometry relative="1" as="geometry">
            <mxPoint x="450" y="440" as="targetPoint" />
            <mxPoint x="703.4000000000001" y="441.31999999999994" as="sourcePoint" />
          </mxGeometry>
        </mxCell>
        <mxCell id="URMRlHWH6kZLgTgrrzF5-11" value="opt" style="shape=umlFrame;whiteSpace=wrap;html=1;pointerEvents=0;" parent="1" vertex="1">
          <mxGeometry x="37.84" y="520" width="720" height="170" as="geometry" />
        </mxCell>
        <mxCell id="URMRlHWH6kZLgTgrrzF5-13" value="1.4 send_verification_code(String correo)" style="html=1;verticalAlign=bottom;endArrow=block;labelBackgroundColor=none;fontFamily=Verdana;fontSize=12;edgeStyle=elbowEdgeStyle;elbow=vertical;entryX=-0.182;entryY=0.618;entryDx=0;entryDy=0;entryPerimeter=0;" parent="1" edge="1">
          <mxGeometry relative="1" as="geometry">
            <mxPoint x="450" y="480.09000000000003" as="sourcePoint" />
            <mxPoint x="703.1800000000001" y="480.2099999999999" as="targetPoint" />
            <mxPoint as="offset" />
          </mxGeometry>
        </mxCell>
        <mxCell id="URMRlHWH6kZLgTgrrzF5-15" value="2.6 success" style="html=1;verticalAlign=bottom;endArrow=open;dashed=1;endSize=8;exitX=-0.16;exitY=0.298;labelBackgroundColor=none;fontFamily=Verdana;fontSize=12;exitDx=0;exitDy=0;exitPerimeter=0;" parent="1" edge="1">
          <mxGeometry relative="1" as="geometry">
            <mxPoint x="85" y="940" as="targetPoint" />
            <mxPoint x="438" y="940" as="sourcePoint" />
          </mxGeometry>
        </mxCell>
        <mxCell id="URMRlHWH6kZLgTgrrzF5-16" value="" style="endArrow=none;dashed=1;html=1;rounded=0;entryX=1.003;entryY=0.587;entryDx=0;entryDy=0;entryPerimeter=0;exitX=0;exitY=0.589;exitDx=0;exitDy=0;exitPerimeter=0;" parent="1" edge="1">
          <mxGeometry width="50" height="50" relative="1" as="geometry">
            <mxPoint x="37.840000000000146" y="590.34" as="sourcePoint" />
            <mxPoint x="760.0000000000002" y="590.0000000000001" as="targetPoint" />
          </mxGeometry>
        </mxCell>
        <mxCell id="URMRlHWH6kZLgTgrrzF5-17" value="2.7 error(&quot;No existe usuario o codigo incorrecto&quot;)" style="html=1;verticalAlign=bottom;endArrow=open;dashed=1;endSize=8;exitX=-0.16;exitY=0.298;labelBackgroundColor=none;fontFamily=Verdana;fontSize=12;exitDx=0;exitDy=0;exitPerimeter=0;" parent="1" edge="1">
          <mxGeometry relative="1" as="geometry">
            <mxPoint x="85" y="1060" as="targetPoint" />
            <mxPoint x="438" y="1060" as="sourcePoint" />
          </mxGeometry>
        </mxCell>
        <mxCell id="URMRlHWH6kZLgTgrrzF5-18" value="[!existeUsuario] ||[!resetToken]" style="text;html=1;align=center;verticalAlign=middle;whiteSpace=wrap;rounded=0;" parent="1" vertex="1">
          <mxGeometry x="75" y="970" width="160" height="30" as="geometry" />
        </mxCell>
        <mxCell id="URMRlHWH6kZLgTgrrzF5-20" value="2.&amp;nbsp;resetPassword&lt;span style=&quot;background-color: initial;&quot;&gt;(String correo, String codigo...)&lt;/span&gt;" style="html=1;verticalAlign=bottom;endArrow=block;entryX=0;entryY=0;labelBackgroundColor=none;fontFamily=Verdana;fontSize=12;edgeStyle=elbowEdgeStyle;elbow=vertical;" parent="1" edge="1">
          <mxGeometry relative="1" as="geometry">
            <mxPoint x="85" y="720" as="sourcePoint" />
            <mxPoint x="440" y="720" as="targetPoint" />
          </mxGeometry>
        </mxCell>
        <mxCell id="URMRlHWH6kZLgTgrrzF5-21" value="1.6 existeUsuario" style="html=1;verticalAlign=bottom;endArrow=open;dashed=1;endSize=8;exitX=-0.16;exitY=0.298;labelBackgroundColor=none;fontFamily=Verdana;fontSize=12;exitDx=0;exitDy=0;exitPerimeter=0;entryX=1.5;entryY=0.221;entryDx=0;entryDy=0;entryPerimeter=0;" parent="1" edge="1">
          <mxGeometry relative="1" as="geometry">
            <mxPoint x="85.00000000000011" y="570" as="targetPoint" />
            <mxPoint x="438.4000000000001" y="571.15" as="sourcePoint" />
          </mxGeometry>
        </mxCell>
        <mxCell id="URMRlHWH6kZLgTgrrzF5-22" value="2.1 existeUsuario(String correo)" style="html=1;verticalAlign=bottom;endArrow=block;labelBackgroundColor=none;fontFamily=Verdana;fontSize=12;edgeStyle=elbowEdgeStyle;elbow=vertical;" parent="1" edge="1">
          <mxGeometry relative="1" as="geometry">
            <mxPoint x="450" y="745" as="sourcePoint" />
            <mxPoint x="710" y="745" as="targetPoint" />
            <mxPoint as="offset" />
          </mxGeometry>
        </mxCell>
        <mxCell id="URMRlHWH6kZLgTgrrzF5-23" value="2.2 existeUsuario" style="html=1;verticalAlign=bottom;endArrow=open;dashed=1;endSize=8;exitX=-0.16;exitY=0.298;labelBackgroundColor=none;fontFamily=Verdana;fontSize=12;exitDx=0;exitDy=0;exitPerimeter=0;" parent="1" edge="1">
          <mxGeometry relative="1" as="geometry">
            <mxPoint x="450" y="780" as="targetPoint" />
            <mxPoint x="703.4000000000001" y="781.3199999999999" as="sourcePoint" />
          </mxGeometry>
        </mxCell>
        <mxCell id="URMRlHWH6kZLgTgrrzF5-24" value="2.3 checkToken(String codigo)" style="html=1;verticalAlign=bottom;endArrow=block;labelBackgroundColor=none;fontFamily=Verdana;fontSize=12;edgeStyle=elbowEdgeStyle;elbow=vertical;" parent="1" edge="1">
          <mxGeometry relative="1" as="geometry">
            <mxPoint x="450" y="820" as="sourcePoint" />
            <mxPoint x="710" y="820" as="targetPoint" />
            <mxPoint as="offset" />
          </mxGeometry>
        </mxCell>
        <mxCell id="URMRlHWH6kZLgTgrrzF5-25" value="2.4 resetToken" style="html=1;verticalAlign=bottom;endArrow=open;dashed=1;endSize=8;exitX=-0.16;exitY=0.298;labelBackgroundColor=none;fontFamily=Verdana;fontSize=12;exitDx=0;exitDy=0;exitPerimeter=0;" parent="1" edge="1">
          <mxGeometry relative="1" as="geometry">
            <mxPoint x="450" y="850" as="targetPoint" />
            <mxPoint x="703.4000000000001" y="851.3199999999999" as="sourcePoint" />
          </mxGeometry>
        </mxCell>
        <mxCell id="URMRlHWH6kZLgTgrrzF5-26" value="[existeUsuario] &amp;amp;&amp;amp; [resetToken]" style="text;html=1;align=center;verticalAlign=middle;whiteSpace=wrap;rounded=0;" parent="1" vertex="1">
          <mxGeometry x="85" y="890" width="160" height="30" as="geometry" />
        </mxCell>
        <mxCell id="URMRlHWH6kZLgTgrrzF5-27" value="2.5 setPassword(String nuevaContraseña)" style="html=1;verticalAlign=bottom;endArrow=block;labelBackgroundColor=none;fontFamily=Verdana;fontSize=12;edgeStyle=elbowEdgeStyle;elbow=vertical;" parent="1" edge="1">
          <mxGeometry relative="1" as="geometry">
            <mxPoint x="450" y="920" as="sourcePoint" />
            <mxPoint x="710" y="920" as="targetPoint" />
            <mxPoint as="offset" />
          </mxGeometry>
        </mxCell>
        <mxCell id="URMRlHWH6kZLgTgrrzF5-28" value="opt" style="shape=umlFrame;whiteSpace=wrap;html=1;pointerEvents=0;" parent="1" vertex="1">
          <mxGeometry x="50" y="880" width="720" height="250" as="geometry" />
        </mxCell>
        <mxCell id="URMRlHWH6kZLgTgrrzF5-29" value="[existeUsuario]&amp;nbsp;" style="text;html=1;align=center;verticalAlign=middle;whiteSpace=wrap;rounded=0;" parent="1" vertex="1">
          <mxGeometry x="85" y="530" width="160" height="30" as="geometry" />
        </mxCell>
        <mxCell id="URMRlHWH6kZLgTgrrzF5-30" value="[!existeUsuario]&amp;nbsp;" style="text;html=1;align=center;verticalAlign=middle;whiteSpace=wrap;rounded=0;" parent="1" vertex="1">
          <mxGeometry x="85" y="590" width="160" height="30" as="geometry" />
        </mxCell>
        <mxCell id="URMRlHWH6kZLgTgrrzF5-31" value="1.7 error()" style="html=1;verticalAlign=bottom;endArrow=open;dashed=1;endSize=8;exitX=-0.16;exitY=0.298;labelBackgroundColor=none;fontFamily=Verdana;fontSize=12;exitDx=0;exitDy=0;exitPerimeter=0;" parent="1" edge="1">
          <mxGeometry relative="1" as="geometry">
            <mxPoint x="85" y="644.4100000000001" as="targetPoint" />
            <mxPoint x="438" y="644.4100000000001" as="sourcePoint" />
          </mxGeometry>
        </mxCell>
        <mxCell id="URMRlHWH6kZLgTgrrzF5-32" value="" style="endArrow=none;dashed=1;html=1;rounded=0;entryX=1.003;entryY=0.587;entryDx=0;entryDy=0;entryPerimeter=0;exitX=0;exitY=0.589;exitDx=0;exitDy=0;exitPerimeter=0;" parent="1" edge="1">
          <mxGeometry width="50" height="50" relative="1" as="geometry">
            <mxPoint x="52.00000000000014" y="960.34" as="sourcePoint" />
            <mxPoint x="774.1600000000002" y="960.0000000000001" as="targetPoint" />
          </mxGeometry>
        </mxCell>
        <mxCell id="ugkyDoloXvBaOR97tNQH-1" value="FlaskMail" style="shape=umlLifeline;perimeter=lifelinePerimeter;whiteSpace=wrap;html=1;container=1;collapsible=0;recursiveResize=0;outlineConnect=0;rounded=1;shadow=0;comic=0;labelBackgroundColor=none;strokeWidth=1;fontFamily=Verdana;fontSize=12;align=center;fillColor=#d5e8d4;strokeColor=#82b366;" vertex="1" parent="1">
          <mxGeometry x="960" y="220" width="100" height="850" as="geometry" />
        </mxCell>
        <mxCell id="ugkyDoloXvBaOR97tNQH-2" value="" style="html=1;points=[];perimeter=orthogonalPerimeter;rounded=0;shadow=0;comic=0;labelBackgroundColor=none;strokeWidth=1;fontFamily=Verdana;fontSize=12;align=center;fillColor=#d5e8d4;strokeColor=#82b366;" vertex="1" parent="ugkyDoloXvBaOR97tNQH-1">
          <mxGeometry x="45" y="180" width="10" height="670" as="geometry" />
        </mxCell>
        <mxCell id="ugkyDoloXvBaOR97tNQH-3" value="1.5 enviarCorreo(String correo, String codigo)" style="html=1;verticalAlign=bottom;endArrow=block;labelBackgroundColor=none;fontFamily=Verdana;fontSize=12;edgeStyle=elbowEdgeStyle;elbow=vertical;entryX=0.262;entryY=0.151;entryDx=0;entryDy=0;entryPerimeter=0;exitX=1.157;exitY=0.154;exitDx=0;exitDy=0;exitPerimeter=0;" edge="1" parent="1" source="URMRlHWH6kZLgTgrrzF5-8" target="ugkyDoloXvBaOR97tNQH-2">
          <mxGeometry relative="1" as="geometry">
            <mxPoint x="768" y="510.00000000000006" as="sourcePoint" />
            <mxPoint x="1021.1800000000001" y="510.11999999999995" as="targetPoint" />
            <mxPoint as="offset" />
          </mxGeometry>
        </mxCell>
      </root>
    </mxGraphModel>
  </diagram>
  <diagram id="5UTjhhacfzE-aH8DOE5h" name="ObtenerDatosAcciones">
    <mxGraphModel dx="1500" dy="746" grid="1" gridSize="10" guides="1" tooltips="1" connect="1" arrows="1" fold="1" page="1" pageScale="1" pageWidth="827" pageHeight="1169" math="0" shadow="0">
      <root>
        <mxCell id="0" />
        <mxCell id="1" parent="0" />
        <mxCell id="oiqYzB32ezXM1fCcF6e8-1" value="Market&lt;br&gt;Controller" style="shape=umlLifeline;perimeter=lifelinePerimeter;whiteSpace=wrap;html=1;container=1;collapsible=0;recursiveResize=0;outlineConnect=0;rounded=1;shadow=0;comic=0;labelBackgroundColor=none;strokeWidth=1;fontFamily=Verdana;fontSize=12;align=center;fillColor=#d5e8d4;strokeColor=#82b366;" parent="1" vertex="1">
          <mxGeometry x="395" y="220" width="100" height="860" as="geometry" />
        </mxCell>
        <mxCell id="oiqYzB32ezXM1fCcF6e8-2" value="" style="html=1;points=[];perimeter=orthogonalPerimeter;rounded=0;shadow=0;comic=0;labelBackgroundColor=none;strokeWidth=1;fontFamily=Verdana;fontSize=12;align=center;fillColor=#d5e8d4;strokeColor=#82b366;" parent="oiqYzB32ezXM1fCcF6e8-1" vertex="1">
          <mxGeometry x="45" y="100" width="10" height="760" as="geometry" />
        </mxCell>
        <mxCell id="oiqYzB32ezXM1fCcF6e8-3" value="1.&amp;nbsp;obtenerAcciones(int cantidad)" style="html=1;verticalAlign=bottom;endArrow=block;entryX=0;entryY=0;labelBackgroundColor=none;fontFamily=Verdana;fontSize=12;edgeStyle=elbowEdgeStyle;elbow=vertical;" parent="1" edge="1">
          <mxGeometry relative="1" as="geometry">
            <mxPoint x="85" y="340" as="sourcePoint" />
            <mxPoint x="440" y="340" as="targetPoint" />
          </mxGeometry>
        </mxCell>
        <mxCell id="oiqYzB32ezXM1fCcF6e8-4" value="" style="html=1;points=[];perimeter=orthogonalPerimeter;rounded=0;shadow=0;comic=0;labelBackgroundColor=none;strokeWidth=1;fontFamily=Verdana;fontSize=12;align=center;fillColor=#d5e8d4;strokeColor=#82b366;" parent="1" vertex="1">
          <mxGeometry x="75" y="320" width="10" height="770" as="geometry" />
        </mxCell>
        <mxCell id="oiqYzB32ezXM1fCcF6e8-5" value="Usuario" style="shape=umlActor;verticalLabelPosition=bottom;verticalAlign=top;html=1;outlineConnect=0;fillColor=#d5e8d4;strokeColor=#82b366;" parent="1" vertex="1">
          <mxGeometry x="65" y="170" width="30" height="60" as="geometry" />
        </mxCell>
        <mxCell id="oiqYzB32ezXM1fCcF6e8-6" value="" style="endArrow=none;dashed=1;html=1;rounded=0;exitX=0.42;exitY=-0.005;exitDx=0;exitDy=0;exitPerimeter=0;" parent="1" source="oiqYzB32ezXM1fCcF6e8-4" edge="1">
          <mxGeometry width="50" height="50" relative="1" as="geometry">
            <mxPoint x="270" y="370" as="sourcePoint" />
            <mxPoint x="79" y="260" as="targetPoint" />
          </mxGeometry>
        </mxCell>
        <mxCell id="oiqYzB32ezXM1fCcF6e8-7" value="SGBD" style="shape=umlLifeline;perimeter=lifelinePerimeter;whiteSpace=wrap;html=1;container=1;collapsible=0;recursiveResize=0;outlineConnect=0;rounded=1;shadow=0;comic=0;labelBackgroundColor=none;strokeWidth=1;fontFamily=Verdana;fontSize=12;align=center;fillColor=#d5e8d4;strokeColor=#82b366;" parent="1" vertex="1">
          <mxGeometry x="660" y="220" width="100" height="850" as="geometry" />
        </mxCell>
        <mxCell id="oiqYzB32ezXM1fCcF6e8-8" value="" style="html=1;points=[];perimeter=orthogonalPerimeter;rounded=0;shadow=0;comic=0;labelBackgroundColor=none;strokeWidth=1;fontFamily=Verdana;fontSize=12;align=center;fillColor=#d5e8d4;strokeColor=#82b366;" parent="oiqYzB32ezXM1fCcF6e8-7" vertex="1">
          <mxGeometry x="45" y="180" width="10" height="120" as="geometry" />
        </mxCell>
        <mxCell id="oiqYzB32ezXM1fCcF6e8-32" value="" style="html=1;points=[];perimeter=orthogonalPerimeter;rounded=0;shadow=0;comic=0;labelBackgroundColor=none;strokeWidth=1;fontFamily=Verdana;fontSize=12;align=center;fillColor=#d5e8d4;strokeColor=#82b366;" parent="oiqYzB32ezXM1fCcF6e8-7" vertex="1">
          <mxGeometry x="45" y="425" width="10" height="120" as="geometry" />
        </mxCell>
        <mxCell id="oiqYzB32ezXM1fCcF6e8-9" value="1.1&amp;nbsp;consultaAcciones(int cantidad)" style="html=1;verticalAlign=bottom;endArrow=block;labelBackgroundColor=none;fontFamily=Verdana;fontSize=12;edgeStyle=elbowEdgeStyle;elbow=vertical;" parent="1" target="oiqYzB32ezXM1fCcF6e8-7" edge="1">
          <mxGeometry relative="1" as="geometry">
            <mxPoint x="450" y="440" as="sourcePoint" />
            <mxPoint x="805" y="390" as="targetPoint" />
            <mxPoint as="offset" />
          </mxGeometry>
        </mxCell>
        <mxCell id="oiqYzB32ezXM1fCcF6e8-10" value="1.2 listaAcciones[]" style="html=1;verticalAlign=bottom;endArrow=open;dashed=1;endSize=8;exitX=-0.16;exitY=0.298;labelBackgroundColor=none;fontFamily=Verdana;fontSize=12;exitDx=0;exitDy=0;exitPerimeter=0;" parent="1" edge="1">
          <mxGeometry relative="1" as="geometry">
            <mxPoint x="450" y="470" as="targetPoint" />
            <mxPoint x="703.4000000000001" y="471.31999999999994" as="sourcePoint" />
          </mxGeometry>
        </mxCell>
        <mxCell id="oiqYzB32ezXM1fCcF6e8-11" value="loop" style="shape=umlFrame;whiteSpace=wrap;html=1;pointerEvents=0;" parent="1" vertex="1">
          <mxGeometry x="37.84" y="520" width="912.16" height="400" as="geometry" />
        </mxCell>
        <mxCell id="oiqYzB32ezXM1fCcF6e8-14" value="" style="endArrow=none;dashed=1;html=1;rounded=0;exitX=0;exitY=0.589;exitDx=0;exitDy=0;exitPerimeter=0;entryX=1.001;entryY=0.458;entryDx=0;entryDy=0;entryPerimeter=0;" parent="1" target="oiqYzB32ezXM1fCcF6e8-25" edge="1">
          <mxGeometry width="50" height="50" relative="1" as="geometry">
            <mxPoint x="50.00000000000014" y="710.34" as="sourcePoint" />
            <mxPoint x="402.15999999999997" y="710" as="targetPoint" />
          </mxGeometry>
        </mxCell>
        <mxCell id="oiqYzB32ezXM1fCcF6e8-25" value="opt" style="shape=umlFrame;whiteSpace=wrap;html=1;pointerEvents=0;" parent="1" vertex="1">
          <mxGeometry x="50" y="622.5" width="620" height="187.5" as="geometry" />
        </mxCell>
        <mxCell id="oiqYzB32ezXM1fCcF6e8-26" value="[accion in listaAcciones]" style="text;html=1;align=center;verticalAlign=middle;whiteSpace=wrap;rounded=0;" parent="1" vertex="1">
          <mxGeometry x="85" y="520" width="160" height="30" as="geometry" />
        </mxCell>
        <mxCell id="oiqYzB32ezXM1fCcF6e8-27" value="[datosAccion.empty()]&amp;nbsp;" style="text;html=1;align=center;verticalAlign=middle;whiteSpace=wrap;rounded=0;" parent="1" vertex="1">
          <mxGeometry x="100" y="635" width="160" height="30" as="geometry" />
        </mxCell>
        <mxCell id="oiqYzB32ezXM1fCcF6e8-28" value="1.5 error(&quot;No hay datos disponibles para el ticker&quot;)" style="html=1;verticalAlign=bottom;endArrow=open;dashed=1;endSize=8;exitX=-0.16;exitY=0.298;labelBackgroundColor=none;fontFamily=Verdana;fontSize=12;exitDx=0;exitDy=0;exitPerimeter=0;" parent="1" edge="1">
          <mxGeometry relative="1" as="geometry">
            <mxPoint x="85" y="690.0000000000001" as="targetPoint" />
            <mxPoint x="438" y="690.0000000000001" as="sourcePoint" />
          </mxGeometry>
        </mxCell>
        <mxCell id="oiqYzB32ezXM1fCcF6e8-30" value="YahooAPI" style="shape=umlLifeline;perimeter=lifelinePerimeter;whiteSpace=wrap;html=1;container=1;collapsible=0;recursiveResize=0;outlineConnect=0;rounded=1;shadow=0;comic=0;labelBackgroundColor=none;strokeWidth=1;fontFamily=Verdana;fontSize=12;align=center;fillColor=#d5e8d4;strokeColor=#82b366;" parent="1" vertex="1">
          <mxGeometry x="820" y="220" width="100" height="850" as="geometry" />
        </mxCell>
        <mxCell id="oiqYzB32ezXM1fCcF6e8-31" value="" style="html=1;points=[];perimeter=orthogonalPerimeter;rounded=0;shadow=0;comic=0;labelBackgroundColor=none;strokeWidth=1;fontFamily=Verdana;fontSize=12;align=center;fillColor=#d5e8d4;strokeColor=#82b366;" parent="oiqYzB32ezXM1fCcF6e8-30" vertex="1">
          <mxGeometry x="45" y="310" width="10" height="150" as="geometry" />
        </mxCell>
        <mxCell id="oiqYzB32ezXM1fCcF6e8-33" value="1.3 obtenerDatosAccion(String accion.TickerSymbol)" style="html=1;verticalAlign=bottom;endArrow=block;labelBackgroundColor=none;fontFamily=Verdana;fontSize=12;edgeStyle=elbowEdgeStyle;elbow=vertical;" parent="1" target="oiqYzB32ezXM1fCcF6e8-30" edge="1">
          <mxGeometry relative="1" as="geometry">
            <mxPoint x="450" y="570" as="sourcePoint" />
            <mxPoint x="709" y="570" as="targetPoint" />
            <mxPoint as="offset" />
          </mxGeometry>
        </mxCell>
        <mxCell id="oiqYzB32ezXM1fCcF6e8-34" value="1.4 datosAccion" style="html=1;verticalAlign=bottom;endArrow=open;dashed=1;endSize=8;exitX=-0.16;exitY=0.298;labelBackgroundColor=none;fontFamily=Verdana;fontSize=12;exitDx=0;exitDy=0;exitPerimeter=0;entryX=0.96;entryY=0.369;entryDx=0;entryDy=0;entryPerimeter=0;" parent="1" target="oiqYzB32ezXM1fCcF6e8-2" edge="1">
          <mxGeometry x="0.0014" relative="1" as="geometry">
            <mxPoint x="510.0000000000001" y="600" as="targetPoint" />
            <mxPoint x="863.4000000000001" y="601.15" as="sourcePoint" />
            <mxPoint as="offset" />
          </mxGeometry>
        </mxCell>
        <mxCell id="oiqYzB32ezXM1fCcF6e8-36" value="[!datosAccion.empty()]&amp;nbsp;" style="text;html=1;align=center;verticalAlign=middle;whiteSpace=wrap;rounded=0;" parent="1" vertex="1">
          <mxGeometry x="85" y="710" width="160" height="30" as="geometry" />
        </mxCell>
        <mxCell id="-6aEU2TXCD11GbvxGZlk-1" value="1.6 agregarAccion(accion)" style="html=1;verticalAlign=bottom;endArrow=block;labelBackgroundColor=none;fontFamily=Verdana;fontSize=12;elbow=vertical;edgeStyle=orthogonalEdgeStyle;curved=1;exitX=0.896;exitY=0.54;exitPerimeter=0;exitDx=0;exitDy=0;" parent="1" source="oiqYzB32ezXM1fCcF6e8-2" edge="1">
          <mxGeometry x="-0.1229" y="75" relative="1" as="geometry">
            <mxPoint x="456" y="730" as="sourcePoint" />
            <mxPoint x="450" y="769" as="targetPoint" />
            <Array as="points">
              <mxPoint x="505" y="730" />
              <mxPoint x="505" y="769" />
            </Array>
            <mxPoint as="offset" />
          </mxGeometry>
        </mxCell>
        <mxCell id="-6aEU2TXCD11GbvxGZlk-2" value="1.7 listaAcciones[]" style="html=1;verticalAlign=bottom;endArrow=open;dashed=1;endSize=8;exitX=-0.064;exitY=0.725;labelBackgroundColor=none;fontFamily=Verdana;fontSize=12;exitDx=0;exitDy=0;exitPerimeter=0;" parent="1" edge="1">
          <mxGeometry relative="1" as="geometry">
            <mxPoint x="85" y="960" as="targetPoint" />
            <mxPoint x="439.3600000000001" y="961" as="sourcePoint" />
          </mxGeometry>
        </mxCell>
      </root>
    </mxGraphModel>
  </diagram>
  <diagram id="q1LlUFYI4I2h_8bipEAb" name="Comprar/Vender">
    <mxGraphModel dx="1105" dy="549" grid="1" gridSize="10" guides="1" tooltips="1" connect="1" arrows="1" fold="1" page="1" pageScale="1" pageWidth="827" pageHeight="1169" math="0" shadow="0">
      <root>
        <mxCell id="0" />
        <mxCell id="1" parent="0" />
        <mxCell id="XBTz5oU4sAgyTMx0JFOu-1" value="Portfolio&lt;br&gt;Controller" style="shape=umlLifeline;perimeter=lifelinePerimeter;whiteSpace=wrap;html=1;container=1;collapsible=0;recursiveResize=0;outlineConnect=0;rounded=1;shadow=0;comic=0;labelBackgroundColor=none;strokeWidth=1;fontFamily=Verdana;fontSize=12;align=center;fillColor=#d5e8d4;strokeColor=#82b366;" vertex="1" parent="1">
          <mxGeometry x="395" y="220" width="100" height="890" as="geometry" />
        </mxCell>
        <mxCell id="XBTz5oU4sAgyTMx0JFOu-2" value="" style="html=1;points=[];perimeter=orthogonalPerimeter;rounded=0;shadow=0;comic=0;labelBackgroundColor=none;strokeWidth=1;fontFamily=Verdana;fontSize=12;align=center;fillColor=#d5e8d4;strokeColor=#82b366;" vertex="1" parent="XBTz5oU4sAgyTMx0JFOu-1">
          <mxGeometry x="45" y="100" width="10" height="790" as="geometry" />
        </mxCell>
        <mxCell id="XBTz5oU4sAgyTMx0JFOu-3" value="1. comprar/venderAccion(string correo, double precio...)" style="html=1;verticalAlign=bottom;endArrow=block;entryX=0;entryY=0;labelBackgroundColor=none;fontFamily=Verdana;fontSize=12;edgeStyle=elbowEdgeStyle;elbow=vertical;" edge="1" parent="1">
          <mxGeometry relative="1" as="geometry">
            <mxPoint x="85" y="340" as="sourcePoint" />
            <mxPoint x="440" y="340" as="targetPoint" />
          </mxGeometry>
        </mxCell>
        <mxCell id="XBTz5oU4sAgyTMx0JFOu-4" value="" style="html=1;points=[];perimeter=orthogonalPerimeter;rounded=0;shadow=0;comic=0;labelBackgroundColor=none;strokeWidth=1;fontFamily=Verdana;fontSize=12;align=center;fillColor=#d5e8d4;strokeColor=#82b366;" vertex="1" parent="1">
          <mxGeometry x="75" y="320" width="10" height="790" as="geometry" />
        </mxCell>
        <mxCell id="XBTz5oU4sAgyTMx0JFOu-5" value="Usuario" style="shape=umlActor;verticalLabelPosition=bottom;verticalAlign=top;html=1;outlineConnect=0;fillColor=#d5e8d4;strokeColor=#82b366;" vertex="1" parent="1">
          <mxGeometry x="65" y="170" width="30" height="60" as="geometry" />
        </mxCell>
        <mxCell id="XBTz5oU4sAgyTMx0JFOu-6" value="" style="endArrow=none;dashed=1;html=1;rounded=0;exitX=0.42;exitY=-0.005;exitDx=0;exitDy=0;exitPerimeter=0;" edge="1" parent="1" source="XBTz5oU4sAgyTMx0JFOu-4">
          <mxGeometry width="50" height="50" relative="1" as="geometry">
            <mxPoint x="270" y="370" as="sourcePoint" />
            <mxPoint x="79" y="260" as="targetPoint" />
          </mxGeometry>
        </mxCell>
        <mxCell id="XBTz5oU4sAgyTMx0JFOu-7" value="SGBD" style="shape=umlLifeline;perimeter=lifelinePerimeter;whiteSpace=wrap;html=1;container=1;collapsible=0;recursiveResize=0;outlineConnect=0;rounded=1;shadow=0;comic=0;labelBackgroundColor=none;strokeWidth=1;fontFamily=Verdana;fontSize=12;align=center;fillColor=#d5e8d4;strokeColor=#82b366;" vertex="1" parent="1">
          <mxGeometry x="780" y="220" width="100" height="850" as="geometry" />
        </mxCell>
        <mxCell id="XBTz5oU4sAgyTMx0JFOu-8" value="" style="html=1;points=[];perimeter=orthogonalPerimeter;rounded=0;shadow=0;comic=0;labelBackgroundColor=none;strokeWidth=1;fontFamily=Verdana;fontSize=12;align=center;fillColor=#d5e8d4;strokeColor=#82b366;" vertex="1" parent="XBTz5oU4sAgyTMx0JFOu-7">
          <mxGeometry x="45" y="180" width="10" height="520" as="geometry" />
        </mxCell>
        <mxCell id="XBTz5oU4sAgyTMx0JFOu-12" value="opt" style="shape=umlFrame;whiteSpace=wrap;html=1;pointerEvents=0;" vertex="1" parent="1">
          <mxGeometry x="37.84" y="520" width="912.16" height="610" as="geometry" />
        </mxCell>
        <mxCell id="XBTz5oU4sAgyTMx0JFOu-15" value="[usuario]" style="text;html=1;align=center;verticalAlign=middle;whiteSpace=wrap;rounded=0;" vertex="1" parent="1">
          <mxGeometry x="85" y="520" width="160" height="30" as="geometry" />
        </mxCell>
        <mxCell id="XBTz5oU4sAgyTMx0JFOu-24" value="1.9 error(&quot;Usuario no encontrado&quot;)" style="html=1;verticalAlign=bottom;endArrow=open;dashed=1;endSize=8;exitX=-0.064;exitY=0.725;labelBackgroundColor=none;fontFamily=Verdana;fontSize=12;exitDx=0;exitDy=0;exitPerimeter=0;" edge="1" parent="1">
          <mxGeometry relative="1" as="geometry">
            <mxPoint x="85" y="1070" as="targetPoint" />
            <mxPoint x="439.3600000000001" y="1071" as="sourcePoint" />
          </mxGeometry>
        </mxCell>
        <mxCell id="r8KFo5wubxOfD1b7x13H-1" value="1.1 usuario = existeUsuario(String correo)" style="html=1;verticalAlign=bottom;endArrow=block;labelBackgroundColor=none;fontFamily=Verdana;fontSize=12;edgeStyle=elbowEdgeStyle;elbow=vertical;" edge="1" parent="1" target="XBTz5oU4sAgyTMx0JFOu-7">
          <mxGeometry relative="1" as="geometry">
            <mxPoint x="450" y="430.05" as="sourcePoint" />
            <mxPoint x="710" y="430" as="targetPoint" />
            <mxPoint as="offset" />
          </mxGeometry>
        </mxCell>
        <mxCell id="r8KFo5wubxOfD1b7x13H-2" value="1.2 usuario" style="html=1;verticalAlign=bottom;endArrow=open;dashed=1;endSize=8;labelBackgroundColor=none;fontFamily=Verdana;fontSize=12;" edge="1" parent="1" source="XBTz5oU4sAgyTMx0JFOu-7">
          <mxGeometry relative="1" as="geometry">
            <mxPoint x="450" y="460" as="targetPoint" />
            <mxPoint x="703" y="461" as="sourcePoint" />
          </mxGeometry>
        </mxCell>
        <mxCell id="r8KFo5wubxOfD1b7x13H-3" value="" style="endArrow=none;dashed=1;html=1;rounded=0;exitX=0.001;exitY=0.782;exitDx=0;exitDy=0;exitPerimeter=0;entryX=1;entryY=0.785;entryDx=0;entryDy=0;entryPerimeter=0;" edge="1" parent="1" source="XBTz5oU4sAgyTMx0JFOu-12" target="XBTz5oU4sAgyTMx0JFOu-12">
          <mxGeometry width="50" height="50" relative="1" as="geometry">
            <mxPoint x="39.00000000000014" y="822.34" as="sourcePoint" />
            <mxPoint x="660" y="820" as="targetPoint" />
          </mxGeometry>
        </mxCell>
        <mxCell id="r8KFo5wubxOfD1b7x13H-4" value="[!usuario]" style="text;html=1;align=center;verticalAlign=middle;whiteSpace=wrap;rounded=0;" vertex="1" parent="1">
          <mxGeometry x="60" y="1020" width="160" height="30" as="geometry" />
        </mxCell>
        <mxCell id="r8KFo5wubxOfD1b7x13H-5" value="1.3 cartera= existeCartera(usuario.id)" style="html=1;verticalAlign=bottom;endArrow=block;labelBackgroundColor=none;fontFamily=Verdana;fontSize=12;edgeStyle=elbowEdgeStyle;elbow=vertical;" edge="1" parent="1" target="XBTz5oU4sAgyTMx0JFOu-8">
          <mxGeometry relative="1" as="geometry">
            <mxPoint x="450" y="540.05" as="sourcePoint" />
            <mxPoint x="710" y="540.05" as="targetPoint" />
            <mxPoint as="offset" />
          </mxGeometry>
        </mxCell>
        <mxCell id="r8KFo5wubxOfD1b7x13H-6" value="opt" style="shape=umlFrame;whiteSpace=wrap;html=1;pointerEvents=0;" vertex="1" parent="1">
          <mxGeometry x="50" y="584" width="880" height="386" as="geometry" />
        </mxCell>
        <mxCell id="r8KFo5wubxOfD1b7x13H-7" value="[cartera]" style="text;html=1;align=center;verticalAlign=middle;whiteSpace=wrap;rounded=0;" vertex="1" parent="1">
          <mxGeometry x="85" y="584" width="160" height="30" as="geometry" />
        </mxCell>
        <mxCell id="r8KFo5wubxOfD1b7x13H-8" value="" style="endArrow=none;dashed=1;html=1;rounded=0;exitX=-0.001;exitY=0.626;exitDx=0;exitDy=0;exitPerimeter=0;entryX=0.999;entryY=0.634;entryDx=0;entryDy=0;entryPerimeter=0;" edge="1" parent="1">
          <mxGeometry width="50" height="50" relative="1" as="geometry">
            <mxPoint x="60.00000000000011" y="879.996" as="sourcePoint" />
            <mxPoint x="929.9999999999999" y="883.084" as="targetPoint" />
          </mxGeometry>
        </mxCell>
        <mxCell id="r8KFo5wubxOfD1b7x13H-9" value="1.4 cartera" style="html=1;verticalAlign=bottom;endArrow=open;dashed=1;endSize=8;exitX=-0.242;exitY=0.322;labelBackgroundColor=none;fontFamily=Verdana;fontSize=12;exitDx=0;exitDy=0;exitPerimeter=0;" edge="1" parent="1" source="XBTz5oU4sAgyTMx0JFOu-8">
          <mxGeometry relative="1" as="geometry">
            <mxPoint x="450" y="570" as="targetPoint" />
            <mxPoint x="703" y="571" as="sourcePoint" />
          </mxGeometry>
        </mxCell>
        <mxCell id="r8KFo5wubxOfD1b7x13H-10" value="[!cartera]" style="text;html=1;align=center;verticalAlign=middle;whiteSpace=wrap;rounded=0;" vertex="1" parent="1">
          <mxGeometry x="65" y="890" width="160" height="30" as="geometry" />
        </mxCell>
        <mxCell id="r8KFo5wubxOfD1b7x13H-11" value="1.8 error(&quot;Cartera no encontrada&quot;)" style="html=1;verticalAlign=bottom;endArrow=open;dashed=1;endSize=8;exitX=-0.064;exitY=0.725;labelBackgroundColor=none;fontFamily=Verdana;fontSize=12;exitDx=0;exitDy=0;exitPerimeter=0;" edge="1" parent="1">
          <mxGeometry relative="1" as="geometry">
            <mxPoint x="85" y="940" as="targetPoint" />
            <mxPoint x="439.3600000000001" y="941" as="sourcePoint" />
          </mxGeometry>
        </mxCell>
        <mxCell id="r8KFo5wubxOfD1b7x13H-12" value="opt" style="shape=umlFrame;whiteSpace=wrap;html=1;pointerEvents=0;" vertex="1" parent="1">
          <mxGeometry x="65" y="630" width="845" height="230" as="geometry" />
        </mxCell>
        <mxCell id="r8KFo5wubxOfD1b7x13H-13" value="[cartera.saldo &amp;gt; precio] // [cartera.acciones &amp;gt; cantidad]" style="text;html=1;align=center;verticalAlign=middle;whiteSpace=wrap;rounded=0;" vertex="1" parent="1">
          <mxGeometry x="120" y="635" width="160" height="30" as="geometry" />
        </mxCell>
        <mxCell id="r8KFo5wubxOfD1b7x13H-14" value="" style="endArrow=none;dashed=1;html=1;rounded=0;exitX=0;exitY=0.703;exitDx=0;exitDy=0;exitPerimeter=0;entryX=0.999;entryY=0.634;entryDx=0;entryDy=0;entryPerimeter=0;" edge="1" parent="1">
          <mxGeometry width="50" height="50" relative="1" as="geometry">
            <mxPoint x="67.5" y="759.9999999999998" as="sourcePoint" />
            <mxPoint x="912.4999999999999" y="761.3939999999999" as="targetPoint" />
          </mxGeometry>
        </mxCell>
        <mxCell id="r8KFo5wubxOfD1b7x13H-15" value="[cartera.saldo &amp;lt; precio] // [cartera.acciones &amp;lt; cantidad]" style="text;html=1;align=center;verticalAlign=middle;whiteSpace=wrap;rounded=0;" vertex="1" parent="1">
          <mxGeometry x="95" y="770" width="160" height="30" as="geometry" />
        </mxCell>
        <mxCell id="r8KFo5wubxOfD1b7x13H-16" value="1.7 error(&quot;Saldo insuficiente //&amp;nbsp;&lt;div&gt;Cantidad de acciones insuficientes&quot;)&lt;/div&gt;" style="html=1;verticalAlign=bottom;endArrow=open;dashed=1;endSize=8;exitX=-0.064;exitY=0.725;labelBackgroundColor=none;fontFamily=Verdana;fontSize=12;exitDx=0;exitDy=0;exitPerimeter=0;" edge="1" parent="1">
          <mxGeometry relative="1" as="geometry">
            <mxPoint x="85" y="840" as="targetPoint" />
            <mxPoint x="439.3600000000001" y="841" as="sourcePoint" />
          </mxGeometry>
        </mxCell>
        <mxCell id="r8KFo5wubxOfD1b7x13H-17" value="1.5 resultadoTransaccion = comprar/vender(int cantidad...)" style="html=1;verticalAlign=bottom;endArrow=block;labelBackgroundColor=none;fontFamily=Verdana;fontSize=12;edgeStyle=elbowEdgeStyle;elbow=vertical;entryX=-0.158;entryY=0.564;entryDx=0;entryDy=0;entryPerimeter=0;" edge="1" parent="1" target="XBTz5oU4sAgyTMx0JFOu-8">
          <mxGeometry relative="1" as="geometry">
            <mxPoint x="450" y="680.0999999999999" as="sourcePoint" />
            <mxPoint x="710" y="680.0999999999999" as="targetPoint" />
            <mxPoint as="offset" />
          </mxGeometry>
        </mxCell>
        <mxCell id="r8KFo5wubxOfD1b7x13H-18" value="1.6 resultadoTransaccion" style="html=1;verticalAlign=bottom;endArrow=open;dashed=1;endSize=8;exitX=-0.064;exitY=0.725;labelBackgroundColor=none;fontFamily=Verdana;fontSize=12;exitDx=0;exitDy=0;exitPerimeter=0;" edge="1" parent="1">
          <mxGeometry relative="1" as="geometry">
            <mxPoint x="85" y="730" as="targetPoint" />
            <mxPoint x="439.3600000000001" y="731" as="sourcePoint" />
          </mxGeometry>
        </mxCell>
      </root>
    </mxGraphModel>
  </diagram>
  <diagram id="nJxdOhbpe_6ZqlvcmgsS" name="ObtenerNoticias">
    <mxGraphModel dx="1050" dy="522" grid="1" gridSize="10" guides="1" tooltips="1" connect="1" arrows="1" fold="1" page="1" pageScale="1" pageWidth="827" pageHeight="1169" math="0" shadow="0">
      <root>
        <mxCell id="0" />
        <mxCell id="1" parent="0" />
        <mxCell id="sKnhPuPcTF8iFPPiSgQT-1" value="News&lt;br&gt;Controller" style="shape=umlLifeline;perimeter=lifelinePerimeter;whiteSpace=wrap;html=1;container=1;collapsible=0;recursiveResize=0;outlineConnect=0;rounded=1;shadow=0;comic=0;labelBackgroundColor=none;strokeWidth=1;fontFamily=Verdana;fontSize=12;align=center;fillColor=#d5e8d4;strokeColor=#82b366;" vertex="1" parent="1">
          <mxGeometry x="395" y="220" width="100" height="860" as="geometry" />
        </mxCell>
        <mxCell id="sKnhPuPcTF8iFPPiSgQT-2" value="" style="html=1;points=[];perimeter=orthogonalPerimeter;rounded=0;shadow=0;comic=0;labelBackgroundColor=none;strokeWidth=1;fontFamily=Verdana;fontSize=12;align=center;fillColor=#d5e8d4;strokeColor=#82b366;" vertex="1" parent="sKnhPuPcTF8iFPPiSgQT-1">
          <mxGeometry x="45" y="100" width="10" height="610" as="geometry" />
        </mxCell>
        <mxCell id="sKnhPuPcTF8iFPPiSgQT-3" value="1.&amp;nbsp;obtenerNoticias(String tematica)" style="html=1;verticalAlign=bottom;endArrow=block;entryX=0;entryY=0;labelBackgroundColor=none;fontFamily=Verdana;fontSize=12;edgeStyle=elbowEdgeStyle;elbow=vertical;" edge="1" parent="1">
          <mxGeometry x="0.0028" relative="1" as="geometry">
            <mxPoint x="85" y="340" as="sourcePoint" />
            <mxPoint x="440" y="340" as="targetPoint" />
            <mxPoint as="offset" />
          </mxGeometry>
        </mxCell>
        <mxCell id="sKnhPuPcTF8iFPPiSgQT-4" value="" style="html=1;points=[];perimeter=orthogonalPerimeter;rounded=0;shadow=0;comic=0;labelBackgroundColor=none;strokeWidth=1;fontFamily=Verdana;fontSize=12;align=center;fillColor=#d5e8d4;strokeColor=#82b366;" vertex="1" parent="1">
          <mxGeometry x="75" y="320" width="10" height="610" as="geometry" />
        </mxCell>
        <mxCell id="sKnhPuPcTF8iFPPiSgQT-5" value="Usuario" style="shape=umlActor;verticalLabelPosition=bottom;verticalAlign=top;html=1;outlineConnect=0;fillColor=#d5e8d4;strokeColor=#82b366;" vertex="1" parent="1">
          <mxGeometry x="65" y="170" width="30" height="60" as="geometry" />
        </mxCell>
        <mxCell id="sKnhPuPcTF8iFPPiSgQT-6" value="" style="endArrow=none;dashed=1;html=1;rounded=0;exitX=0.42;exitY=-0.005;exitDx=0;exitDy=0;exitPerimeter=0;" edge="1" parent="1" source="sKnhPuPcTF8iFPPiSgQT-4">
          <mxGeometry width="50" height="50" relative="1" as="geometry">
            <mxPoint x="270" y="370" as="sourcePoint" />
            <mxPoint x="79" y="260" as="targetPoint" />
          </mxGeometry>
        </mxCell>
        <mxCell id="sKnhPuPcTF8iFPPiSgQT-7" value="NewsAPI" style="shape=umlLifeline;perimeter=lifelinePerimeter;whiteSpace=wrap;html=1;container=1;collapsible=0;recursiveResize=0;outlineConnect=0;rounded=1;shadow=0;comic=0;labelBackgroundColor=none;strokeWidth=1;fontFamily=Verdana;fontSize=12;align=center;fillColor=#d5e8d4;strokeColor=#82b366;" vertex="1" parent="1">
          <mxGeometry x="660" y="220" width="100" height="850" as="geometry" />
        </mxCell>
        <mxCell id="sKnhPuPcTF8iFPPiSgQT-8" value="" style="html=1;points=[];perimeter=orthogonalPerimeter;rounded=0;shadow=0;comic=0;labelBackgroundColor=none;strokeWidth=1;fontFamily=Verdana;fontSize=12;align=center;fillColor=#d5e8d4;strokeColor=#82b366;" vertex="1" parent="sKnhPuPcTF8iFPPiSgQT-7">
          <mxGeometry x="45" y="180" width="10" height="530" as="geometry" />
        </mxCell>
        <mxCell id="sKnhPuPcTF8iFPPiSgQT-10" value="1.1&amp;nbsp;get_api_session()" style="html=1;verticalAlign=bottom;endArrow=block;labelBackgroundColor=none;fontFamily=Verdana;fontSize=12;edgeStyle=elbowEdgeStyle;elbow=vertical;" edge="1" parent="1">
          <mxGeometry relative="1" as="geometry">
            <mxPoint x="450" y="440" as="sourcePoint" />
            <mxPoint x="709.5" y="440" as="targetPoint" />
            <mxPoint as="offset" />
          </mxGeometry>
        </mxCell>
        <mxCell id="sKnhPuPcTF8iFPPiSgQT-11" value="1.2 session" style="html=1;verticalAlign=bottom;endArrow=open;dashed=1;endSize=8;exitX=-0.16;exitY=0.298;labelBackgroundColor=none;fontFamily=Verdana;fontSize=12;exitDx=0;exitDy=0;exitPerimeter=0;" edge="1" parent="1">
          <mxGeometry relative="1" as="geometry">
            <mxPoint x="450" y="490" as="targetPoint" />
            <mxPoint x="703.4000000000001" y="491.31999999999994" as="sourcePoint" />
          </mxGeometry>
        </mxCell>
        <mxCell id="sKnhPuPcTF8iFPPiSgQT-12" value="opt" style="shape=umlFrame;whiteSpace=wrap;html=1;pointerEvents=0;" vertex="1" parent="1">
          <mxGeometry x="37.84" y="630" width="912.16" height="250" as="geometry" />
        </mxCell>
        <mxCell id="sKnhPuPcTF8iFPPiSgQT-13" value="" style="endArrow=none;dashed=1;html=1;rounded=0;exitX=0;exitY=0.589;exitDx=0;exitDy=0;exitPerimeter=0;entryX=1.001;entryY=0.623;entryDx=0;entryDy=0;entryPerimeter=0;" edge="1" parent="1">
          <mxGeometry width="50" height="50" relative="1" as="geometry">
            <mxPoint x="37.840000000000146" y="751.3000000000001" as="sourcePoint" />
            <mxPoint x="949.3721599999999" y="750.0000000000001" as="targetPoint" />
          </mxGeometry>
        </mxCell>
        <mxCell id="sKnhPuPcTF8iFPPiSgQT-16" value="[response.status_code == 200]&amp;nbsp;" style="text;html=1;align=center;verticalAlign=middle;whiteSpace=wrap;rounded=0;" vertex="1" parent="1">
          <mxGeometry x="100" y="635" width="190" height="30" as="geometry" />
        </mxCell>
        <mxCell id="sKnhPuPcTF8iFPPiSgQT-17" value="1.5 error(&quot;No se pudieron obtener las noticias&quot;)" style="html=1;verticalAlign=bottom;endArrow=open;dashed=1;endSize=8;exitX=-0.16;exitY=0.298;labelBackgroundColor=none;fontFamily=Verdana;fontSize=12;exitDx=0;exitDy=0;exitPerimeter=0;" edge="1" parent="1">
          <mxGeometry relative="1" as="geometry">
            <mxPoint x="85" y="830.0000000000001" as="targetPoint" />
            <mxPoint x="438" y="830.0000000000001" as="sourcePoint" />
          </mxGeometry>
        </mxCell>
        <mxCell id="sKnhPuPcTF8iFPPiSgQT-24" value="1.7 news_data.json()" style="html=1;verticalAlign=bottom;endArrow=open;dashed=1;endSize=8;exitX=-0.064;exitY=0.725;labelBackgroundColor=none;fontFamily=Verdana;fontSize=12;exitDx=0;exitDy=0;exitPerimeter=0;" edge="1" parent="1">
          <mxGeometry relative="1" as="geometry">
            <mxPoint x="85" y="704.5" as="targetPoint" />
            <mxPoint x="439.3600000000001" y="705.5" as="sourcePoint" />
          </mxGeometry>
        </mxCell>
        <mxCell id="sKnhPuPcTF8iFPPiSgQT-25" value="1.2 response" style="html=1;verticalAlign=bottom;endArrow=open;dashed=1;endSize=8;exitX=-0.16;exitY=0.298;labelBackgroundColor=none;fontFamily=Verdana;fontSize=12;exitDx=0;exitDy=0;exitPerimeter=0;" edge="1" parent="1">
          <mxGeometry relative="1" as="geometry">
            <mxPoint x="450" y="600" as="targetPoint" />
            <mxPoint x="703.4000000000001" y="601.3199999999999" as="sourcePoint" />
          </mxGeometry>
        </mxCell>
        <mxCell id="sKnhPuPcTF8iFPPiSgQT-26" value="1.1 news_data = session.get(String url)" style="html=1;verticalAlign=bottom;endArrow=block;labelBackgroundColor=none;fontFamily=Verdana;fontSize=12;edgeStyle=elbowEdgeStyle;elbow=vertical;" edge="1" parent="1">
          <mxGeometry relative="1" as="geometry">
            <mxPoint x="450" y="550" as="sourcePoint" />
            <mxPoint x="709.5" y="550" as="targetPoint" />
            <mxPoint as="offset" />
          </mxGeometry>
        </mxCell>
        <mxCell id="sKnhPuPcTF8iFPPiSgQT-27" value="[response.status_code != 200]&amp;nbsp;" style="text;html=1;align=center;verticalAlign=middle;whiteSpace=wrap;rounded=0;" vertex="1" parent="1">
          <mxGeometry x="85" y="770" width="190" height="30" as="geometry" />
        </mxCell>
      </root>
    </mxGraphModel>
  </diagram>
  <diagram id="-nsedaz4LN_1p8rW0R8d" name="RecibirNotificaciones">
    <mxGraphModel dx="1750" dy="870" grid="1" gridSize="10" guides="1" tooltips="1" connect="1" arrows="1" fold="1" page="1" pageScale="1" pageWidth="827" pageHeight="1169" math="0" shadow="0">
      <root>
        <mxCell id="0" />
        <mxCell id="1" parent="0" />
        <mxCell id="lMOkdTb-bO7F6NHRvE9g-1" value="SocketService" style="shape=umlLifeline;perimeter=lifelinePerimeter;whiteSpace=wrap;html=1;container=1;collapsible=0;recursiveResize=0;outlineConnect=0;rounded=1;shadow=0;comic=0;labelBackgroundColor=none;strokeWidth=1;fontFamily=Verdana;fontSize=12;align=center;fillColor=#d5e8d4;strokeColor=#82b366;" vertex="1" parent="1">
          <mxGeometry x="415" y="140" width="100" height="1030" as="geometry" />
        </mxCell>
        <mxCell id="lMOkdTb-bO7F6NHRvE9g-2" value="" style="html=1;points=[];perimeter=orthogonalPerimeter;rounded=0;shadow=0;comic=0;labelBackgroundColor=none;strokeWidth=1;fontFamily=Verdana;fontSize=12;align=center;fillColor=#d5e8d4;strokeColor=#82b366;" vertex="1" parent="lMOkdTb-bO7F6NHRvE9g-1">
          <mxGeometry x="45" y="100" width="10" height="930" as="geometry" />
        </mxCell>
        <mxCell id="lMOkdTb-bO7F6NHRvE9g-3" value="1. suscribirseNotificaciones(String correo)" style="html=1;verticalAlign=bottom;endArrow=block;entryX=0;entryY=0;labelBackgroundColor=none;fontFamily=Verdana;fontSize=12;edgeStyle=elbowEdgeStyle;elbow=vertical;" edge="1" parent="1">
          <mxGeometry x="-0.0011" relative="1" as="geometry">
            <mxPoint x="105" y="260" as="sourcePoint" />
            <mxPoint x="460" y="260" as="targetPoint" />
            <mxPoint as="offset" />
          </mxGeometry>
        </mxCell>
        <mxCell id="lMOkdTb-bO7F6NHRvE9g-4" value="" style="html=1;points=[];perimeter=orthogonalPerimeter;rounded=0;shadow=0;comic=0;labelBackgroundColor=none;strokeWidth=1;fontFamily=Verdana;fontSize=12;align=center;fillColor=#d5e8d4;strokeColor=#82b366;" vertex="1" parent="1">
          <mxGeometry x="95" y="240" width="10" height="930" as="geometry" />
        </mxCell>
        <mxCell id="lMOkdTb-bO7F6NHRvE9g-5" value="Usuario" style="shape=umlActor;verticalLabelPosition=bottom;verticalAlign=top;html=1;outlineConnect=0;fillColor=#d5e8d4;strokeColor=#82b366;" vertex="1" parent="1">
          <mxGeometry x="85" y="90" width="30" height="60" as="geometry" />
        </mxCell>
        <mxCell id="lMOkdTb-bO7F6NHRvE9g-6" value="" style="endArrow=none;dashed=1;html=1;rounded=0;exitX=0.42;exitY=-0.005;exitDx=0;exitDy=0;exitPerimeter=0;" edge="1" parent="1" source="lMOkdTb-bO7F6NHRvE9g-4">
          <mxGeometry width="50" height="50" relative="1" as="geometry">
            <mxPoint x="290" y="290" as="sourcePoint" />
            <mxPoint x="99" y="180" as="targetPoint" />
          </mxGeometry>
        </mxCell>
        <mxCell id="lMOkdTb-bO7F6NHRvE9g-7" value="Scheduler" style="shape=umlLifeline;perimeter=lifelinePerimeter;whiteSpace=wrap;html=1;container=1;collapsible=0;recursiveResize=0;outlineConnect=0;rounded=1;shadow=0;comic=0;labelBackgroundColor=none;strokeWidth=1;fontFamily=Verdana;fontSize=12;align=center;fillColor=#d5e8d4;strokeColor=#82b366;" vertex="1" parent="1">
          <mxGeometry x="655" y="140" width="100" height="980" as="geometry" />
        </mxCell>
        <mxCell id="lMOkdTb-bO7F6NHRvE9g-8" value="" style="html=1;points=[];perimeter=orthogonalPerimeter;rounded=0;shadow=0;comic=0;labelBackgroundColor=none;strokeWidth=1;fontFamily=Verdana;fontSize=12;align=center;fillColor=#d5e8d4;strokeColor=#82b366;" vertex="1" parent="lMOkdTb-bO7F6NHRvE9g-7">
          <mxGeometry x="45" y="180" width="10" height="800" as="geometry" />
        </mxCell>
        <mxCell id="lMOkdTb-bO7F6NHRvE9g-9" value="1.1 socket = connect()" style="html=1;verticalAlign=bottom;endArrow=block;labelBackgroundColor=none;fontFamily=Verdana;fontSize=12;edgeStyle=elbowEdgeStyle;elbow=vertical;" edge="1" parent="1" target="lMOkdTb-bO7F6NHRvE9g-7">
          <mxGeometry x="0.0008" relative="1" as="geometry">
            <mxPoint x="470" y="360" as="sourcePoint" />
            <mxPoint x="825" y="310" as="targetPoint" />
            <mxPoint as="offset" />
          </mxGeometry>
        </mxCell>
        <mxCell id="lMOkdTb-bO7F6NHRvE9g-11" value="opt" style="shape=umlFrame;whiteSpace=wrap;html=1;pointerEvents=0;" vertex="1" parent="1">
          <mxGeometry x="20" y="380" width="1450" height="890" as="geometry" />
        </mxCell>
        <mxCell id="lMOkdTb-bO7F6NHRvE9g-12" value="[socket.onConnect]" style="text;html=1;align=center;verticalAlign=middle;whiteSpace=wrap;rounded=0;" vertex="1" parent="1">
          <mxGeometry x="140" y="390" width="60" height="30" as="geometry" />
        </mxCell>
        <mxCell id="lMOkdTb-bO7F6NHRvE9g-20" value="SGBD" style="shape=umlLifeline;perimeter=lifelinePerimeter;whiteSpace=wrap;html=1;container=1;collapsible=0;recursiveResize=0;outlineConnect=0;rounded=1;shadow=0;comic=0;labelBackgroundColor=none;strokeWidth=1;fontFamily=Verdana;fontSize=12;align=center;fillColor=#d5e8d4;strokeColor=#82b366;" vertex="1" parent="1">
          <mxGeometry x="1020" y="140" width="100" height="740" as="geometry" />
        </mxCell>
        <mxCell id="lMOkdTb-bO7F6NHRvE9g-21" value="" style="html=1;points=[];perimeter=orthogonalPerimeter;rounded=0;shadow=0;comic=0;labelBackgroundColor=none;strokeWidth=1;fontFamily=Verdana;fontSize=12;align=center;fillColor=#d5e8d4;strokeColor=#82b366;" vertex="1" parent="lMOkdTb-bO7F6NHRvE9g-20">
          <mxGeometry x="45" y="180" width="10" height="560" as="geometry" />
        </mxCell>
        <mxCell id="lMOkdTb-bO7F6NHRvE9g-23" value="1.2 socket.join(String correo)" style="html=1;verticalAlign=bottom;endArrow=block;labelBackgroundColor=none;fontFamily=Verdana;fontSize=12;edgeStyle=elbowEdgeStyle;elbow=vertical;" edge="1" parent="1">
          <mxGeometry x="0.0008" relative="1" as="geometry">
            <mxPoint x="470" y="440" as="sourcePoint" />
            <mxPoint x="705" y="440" as="targetPoint" />
            <mxPoint as="offset" />
          </mxGeometry>
        </mxCell>
        <mxCell id="3Fk5Id7-hx99eHqKnvtd-1" value="1.3 join_room(String correo)" style="html=1;verticalAlign=bottom;endArrow=block;labelBackgroundColor=none;fontFamily=Verdana;fontSize=12;elbow=vertical;edgeStyle=orthogonalEdgeStyle;curved=1;exitX=0.896;exitY=0.54;exitPerimeter=0;exitDx=0;exitDy=0;" edge="1" parent="1">
          <mxGeometry x="-0.253" y="45" relative="1" as="geometry">
            <mxPoint x="710" y="460" as="sourcePoint" />
            <mxPoint x="711" y="499" as="targetPoint" />
            <Array as="points">
              <mxPoint x="766" y="460" />
              <mxPoint x="766" y="499" />
            </Array>
            <mxPoint x="-1" y="-10" as="offset" />
          </mxGeometry>
        </mxCell>
        <mxCell id="3Fk5Id7-hx99eHqKnvtd-2" value="1.4 configura_tareas()" style="html=1;verticalAlign=bottom;endArrow=block;labelBackgroundColor=none;fontFamily=Verdana;fontSize=12;elbow=vertical;edgeStyle=orthogonalEdgeStyle;curved=1;exitX=0.896;exitY=0.54;exitPerimeter=0;exitDx=0;exitDy=0;" edge="1" parent="1">
          <mxGeometry x="-0.253" y="45" relative="1" as="geometry">
            <mxPoint x="710" y="540" as="sourcePoint" />
            <mxPoint x="711" y="579" as="targetPoint" />
            <Array as="points">
              <mxPoint x="766" y="540" />
              <mxPoint x="766" y="579" />
            </Array>
            <mxPoint x="-1" y="-10" as="offset" />
          </mxGeometry>
        </mxCell>
        <mxCell id="3Fk5Id7-hx99eHqKnvtd-3" value="1.5 add_job(&quot;check_favorite_stocks_prices&quot;)" style="html=1;verticalAlign=bottom;endArrow=block;labelBackgroundColor=none;fontFamily=Verdana;fontSize=12;elbow=vertical;edgeStyle=orthogonalEdgeStyle;curved=1;exitX=0.896;exitY=0.54;exitPerimeter=0;exitDx=0;exitDy=0;" edge="1" parent="1">
          <mxGeometry x="-0.2531" y="84" relative="1" as="geometry">
            <mxPoint x="710" y="610" as="sourcePoint" />
            <mxPoint x="711" y="649" as="targetPoint" />
            <Array as="points">
              <mxPoint x="766" y="610" />
              <mxPoint x="766" y="649" />
            </Array>
            <mxPoint as="offset" />
          </mxGeometry>
        </mxCell>
        <mxCell id="3Fk5Id7-hx99eHqKnvtd-4" value="1.6 listaUsuario = getUsuarios()" style="html=1;verticalAlign=bottom;endArrow=block;labelBackgroundColor=none;fontFamily=Verdana;fontSize=12;edgeStyle=elbowEdgeStyle;elbow=vertical;entryX=-0.022;entryY=0.661;entryDx=0;entryDy=0;entryPerimeter=0;" edge="1" parent="1" target="lMOkdTb-bO7F6NHRvE9g-21">
          <mxGeometry x="0.0008" relative="1" as="geometry">
            <mxPoint x="710" y="690" as="sourcePoint" />
            <mxPoint x="945" y="690" as="targetPoint" />
            <mxPoint as="offset" />
          </mxGeometry>
        </mxCell>
        <mxCell id="3Fk5Id7-hx99eHqKnvtd-5" value="YahooAPI" style="shape=umlLifeline;perimeter=lifelinePerimeter;whiteSpace=wrap;html=1;container=1;collapsible=0;recursiveResize=0;outlineConnect=0;rounded=1;shadow=0;comic=0;labelBackgroundColor=none;strokeWidth=1;fontFamily=Verdana;fontSize=12;align=center;fillColor=#d5e8d4;strokeColor=#82b366;" vertex="1" parent="1">
          <mxGeometry x="1200" y="140" width="100" height="870" as="geometry" />
        </mxCell>
        <mxCell id="3Fk5Id7-hx99eHqKnvtd-6" value="" style="html=1;points=[];perimeter=orthogonalPerimeter;rounded=0;shadow=0;comic=0;labelBackgroundColor=none;strokeWidth=1;fontFamily=Verdana;fontSize=12;align=center;fillColor=#d5e8d4;strokeColor=#82b366;" vertex="1" parent="3Fk5Id7-hx99eHqKnvtd-5">
          <mxGeometry x="45" y="750" width="10" height="120" as="geometry" />
        </mxCell>
        <mxCell id="3Fk5Id7-hx99eHqKnvtd-7" value="loop" style="shape=umlFrame;whiteSpace=wrap;html=1;pointerEvents=0;" vertex="1" parent="1">
          <mxGeometry x="50" y="720" width="1290" height="510" as="geometry" />
        </mxCell>
        <mxCell id="3Fk5Id7-hx99eHqKnvtd-8" value="[usuario in listaUsuario]" style="text;html=1;align=center;verticalAlign=middle;whiteSpace=wrap;rounded=0;" vertex="1" parent="1">
          <mxGeometry x="115" y="730" width="155" height="30" as="geometry" />
        </mxCell>
        <mxCell id="t8hbAL0H5bFSDFbJviHf-1" value="1.7 listaAccionesFavoritas = getAccionesFavs(usuario.id)" style="html=1;verticalAlign=bottom;endArrow=block;labelBackgroundColor=none;fontFamily=Verdana;fontSize=12;edgeStyle=elbowEdgeStyle;elbow=vertical;entryX=-0.164;entryY=0.795;entryDx=0;entryDy=0;entryPerimeter=0;" edge="1" parent="1" target="lMOkdTb-bO7F6NHRvE9g-21">
          <mxGeometry x="0.0008" relative="1" as="geometry">
            <mxPoint x="710" y="770" as="sourcePoint" />
            <mxPoint x="1035" y="770" as="targetPoint" />
            <mxPoint as="offset" />
          </mxGeometry>
        </mxCell>
        <mxCell id="t8hbAL0H5bFSDFbJviHf-2" value="loop" style="shape=umlFrame;whiteSpace=wrap;html=1;pointerEvents=0;" vertex="1" parent="1">
          <mxGeometry x="70" y="790" width="1250" height="410" as="geometry" />
        </mxCell>
        <mxCell id="t8hbAL0H5bFSDFbJviHf-3" value="[accion in&amp;nbsp;&lt;span style=&quot;font-family: Verdana; text-wrap: nowrap;&quot;&gt;listaAccionesFavoritas&amp;nbsp;&lt;/span&gt;]" style="text;html=1;align=center;verticalAlign=middle;whiteSpace=wrap;rounded=0;" vertex="1" parent="1">
          <mxGeometry x="130" y="800" width="210" height="30" as="geometry" />
        </mxCell>
        <mxCell id="t8hbAL0H5bFSDFbJviHf-4" value="1.8 accionData = yf.Ticker(accion.id).history()" style="html=1;verticalAlign=bottom;endArrow=block;labelBackgroundColor=none;fontFamily=Verdana;fontSize=12;edgeStyle=elbowEdgeStyle;elbow=vertical;" edge="1" parent="1" target="3Fk5Id7-hx99eHqKnvtd-6">
          <mxGeometry x="0.0008" relative="1" as="geometry">
            <mxPoint x="710" y="925" as="sourcePoint" />
            <mxPoint x="1063" y="920" as="targetPoint" />
            <mxPoint as="offset" />
          </mxGeometry>
        </mxCell>
        <mxCell id="t8hbAL0H5bFSDFbJviHf-5" value="1.9 calcularCambio(accionData)" style="html=1;verticalAlign=bottom;endArrow=block;labelBackgroundColor=none;fontFamily=Verdana;fontSize=12;elbow=vertical;edgeStyle=orthogonalEdgeStyle;curved=1;exitX=0.896;exitY=0.54;exitPerimeter=0;exitDx=0;exitDy=0;" edge="1" parent="1">
          <mxGeometry x="-0.2531" y="84" relative="1" as="geometry">
            <mxPoint x="710" y="970.96" as="sourcePoint" />
            <mxPoint x="711" y="1009.96" as="targetPoint" />
            <Array as="points">
              <mxPoint x="766" y="970.96" />
              <mxPoint x="766" y="1009.96" />
            </Array>
            <mxPoint as="offset" />
          </mxGeometry>
        </mxCell>
        <mxCell id="t8hbAL0H5bFSDFbJviHf-6" value="" style="html=1;points=[];perimeter=orthogonalPerimeter;rounded=0;shadow=0;comic=0;labelBackgroundColor=none;strokeWidth=1;fontFamily=Verdana;fontSize=12;align=center;fillColor=#d5e8d4;strokeColor=#82b366;" vertex="1" parent="1">
          <mxGeometry x="1065" y="960" width="10" height="130" as="geometry" />
        </mxCell>
        <mxCell id="t8hbAL0H5bFSDFbJviHf-7" value="" style="endArrow=none;dashed=1;html=1;rounded=0;entryX=0.476;entryY=1.001;entryDx=0;entryDy=0;entryPerimeter=0;exitX=0.604;exitY=-0.041;exitDx=0;exitDy=0;exitPerimeter=0;fillColor=#d5e8d4;strokeColor=#82b366;" edge="1" parent="1" source="t8hbAL0H5bFSDFbJviHf-6" target="lMOkdTb-bO7F6NHRvE9g-21">
          <mxGeometry width="50" height="50" relative="1" as="geometry">
            <mxPoint x="980" y="1000" as="sourcePoint" />
            <mxPoint x="1030" y="950" as="targetPoint" />
          </mxGeometry>
        </mxCell>
        <mxCell id="t8hbAL0H5bFSDFbJviHf-8" value="1.10 stock_alert = nuevaNotificacion(String msg, Date fecha)" style="html=1;verticalAlign=bottom;endArrow=block;labelBackgroundColor=none;fontFamily=Verdana;fontSize=12;edgeStyle=elbowEdgeStyle;elbow=vertical;entryX=-0.164;entryY=0.795;entryDx=0;entryDy=0;entryPerimeter=0;" edge="1" parent="1">
          <mxGeometry x="0.0008" relative="1" as="geometry">
            <mxPoint x="712" y="1055" as="sourcePoint" />
            <mxPoint x="1065" y="1050" as="targetPoint" />
            <mxPoint as="offset" />
          </mxGeometry>
        </mxCell>
        <mxCell id="QvJuiY1ZDwzqWMl_GSD1-1" value="1.11 send_notification(stock_alert)" style="html=1;verticalAlign=bottom;endArrow=open;dashed=1;endSize=8;labelBackgroundColor=none;fontFamily=Verdana;fontSize=12;" edge="1" parent="1">
          <mxGeometry relative="1" as="geometry">
            <mxPoint x="470" y="1080" as="targetPoint" />
            <mxPoint x="700" y="1080" as="sourcePoint" />
          </mxGeometry>
        </mxCell>
        <mxCell id="QvJuiY1ZDwzqWMl_GSD1-2" value="1.12 showNotificacion(stock_alert)" style="html=1;verticalAlign=bottom;endArrow=open;dashed=1;endSize=8;labelBackgroundColor=none;fontFamily=Verdana;fontSize=12;entryX=1.18;entryY=0.968;entryDx=0;entryDy=0;entryPerimeter=0;" edge="1" parent="1" target="lMOkdTb-bO7F6NHRvE9g-4">
          <mxGeometry relative="1" as="geometry">
            <mxPoint x="230" y="1140" as="targetPoint" />
            <mxPoint x="460" y="1140" as="sourcePoint" />
          </mxGeometry>
        </mxCell>
      </root>
    </mxGraphModel>
  </diagram>
  <diagram id="zDMUdX7XlgCD6M9-bw-8" name="EditarPerfil">
    <mxGraphModel dx="1235" dy="614" grid="1" gridSize="10" guides="1" tooltips="1" connect="1" arrows="1" fold="1" page="1" pageScale="1" pageWidth="827" pageHeight="1169" math="0" shadow="0">
      <root>
        <mxCell id="0" />
        <mxCell id="1" parent="0" />
        <mxCell id="n9aZLW_Md7DBoVtT5PN--1" value="UserController" style="shape=umlLifeline;perimeter=lifelinePerimeter;whiteSpace=wrap;html=1;container=1;collapsible=0;recursiveResize=0;outlineConnect=0;rounded=1;shadow=0;comic=0;labelBackgroundColor=none;strokeWidth=1;fontFamily=Verdana;fontSize=12;align=center;fillColor=#d5e8d4;strokeColor=#82b366;" vertex="1" parent="1">
          <mxGeometry x="395" y="220" width="100" height="710" as="geometry" />
        </mxCell>
        <mxCell id="n9aZLW_Md7DBoVtT5PN--2" value="" style="html=1;points=[];perimeter=orthogonalPerimeter;rounded=0;shadow=0;comic=0;labelBackgroundColor=none;strokeWidth=1;fontFamily=Verdana;fontSize=12;align=center;fillColor=#d5e8d4;strokeColor=#82b366;" vertex="1" parent="n9aZLW_Md7DBoVtT5PN--1">
          <mxGeometry x="45" y="100" width="10" height="610" as="geometry" />
        </mxCell>
        <mxCell id="n9aZLW_Md7DBoVtT5PN--3" value="1. actualizarUsuario(String correo, String contraseña...)" style="html=1;verticalAlign=bottom;endArrow=block;entryX=0;entryY=0;labelBackgroundColor=none;fontFamily=Verdana;fontSize=12;edgeStyle=elbowEdgeStyle;elbow=vertical;" edge="1" parent="1">
          <mxGeometry relative="1" as="geometry">
            <mxPoint x="85" y="340" as="sourcePoint" />
            <mxPoint x="440" y="340" as="targetPoint" />
          </mxGeometry>
        </mxCell>
        <mxCell id="n9aZLW_Md7DBoVtT5PN--4" value="" style="html=1;points=[];perimeter=orthogonalPerimeter;rounded=0;shadow=0;comic=0;labelBackgroundColor=none;strokeWidth=1;fontFamily=Verdana;fontSize=12;align=center;fillColor=#d5e8d4;strokeColor=#82b366;" vertex="1" parent="1">
          <mxGeometry x="75" y="320" width="10" height="610" as="geometry" />
        </mxCell>
        <mxCell id="n9aZLW_Md7DBoVtT5PN--5" value="Usuario" style="shape=umlActor;verticalLabelPosition=bottom;verticalAlign=top;html=1;outlineConnect=0;fillColor=#d5e8d4;strokeColor=#82b366;" vertex="1" parent="1">
          <mxGeometry x="65" y="170" width="30" height="60" as="geometry" />
        </mxCell>
        <mxCell id="n9aZLW_Md7DBoVtT5PN--6" value="" style="endArrow=none;dashed=1;html=1;rounded=0;exitX=0.42;exitY=-0.005;exitDx=0;exitDy=0;exitPerimeter=0;" edge="1" parent="1" source="n9aZLW_Md7DBoVtT5PN--4">
          <mxGeometry width="50" height="50" relative="1" as="geometry">
            <mxPoint x="270" y="370" as="sourcePoint" />
            <mxPoint x="79" y="260" as="targetPoint" />
          </mxGeometry>
        </mxCell>
        <mxCell id="n9aZLW_Md7DBoVtT5PN--7" value="SGBD" style="shape=umlLifeline;perimeter=lifelinePerimeter;whiteSpace=wrap;html=1;container=1;collapsible=0;recursiveResize=0;outlineConnect=0;rounded=1;shadow=0;comic=0;labelBackgroundColor=none;strokeWidth=1;fontFamily=Verdana;fontSize=12;align=center;fillColor=#d5e8d4;strokeColor=#82b366;" vertex="1" parent="1">
          <mxGeometry x="827" y="220" width="100" height="580" as="geometry" />
        </mxCell>
        <mxCell id="n9aZLW_Md7DBoVtT5PN--8" value="" style="html=1;points=[];perimeter=orthogonalPerimeter;rounded=0;shadow=0;comic=0;labelBackgroundColor=none;strokeWidth=1;fontFamily=Verdana;fontSize=12;align=center;fillColor=#d5e8d4;strokeColor=#82b366;" vertex="1" parent="n9aZLW_Md7DBoVtT5PN--7">
          <mxGeometry x="45" y="180" width="10" height="340" as="geometry" />
        </mxCell>
        <mxCell id="n9aZLW_Md7DBoVtT5PN--9" value="1.1 existeUsuario(String correo)" style="html=1;verticalAlign=bottom;endArrow=block;labelBackgroundColor=none;fontFamily=Verdana;fontSize=12;edgeStyle=elbowEdgeStyle;elbow=vertical;" edge="1" parent="1" target="n9aZLW_Md7DBoVtT5PN--7">
          <mxGeometry relative="1" as="geometry">
            <mxPoint x="450" y="440" as="sourcePoint" />
            <mxPoint x="805" y="390" as="targetPoint" />
            <mxPoint as="offset" />
          </mxGeometry>
        </mxCell>
        <mxCell id="n9aZLW_Md7DBoVtT5PN--10" value="1.2 usuario" style="html=1;verticalAlign=bottom;endArrow=open;dashed=1;endSize=8;labelBackgroundColor=none;fontFamily=Verdana;fontSize=12;" edge="1" parent="1" source="n9aZLW_Md7DBoVtT5PN--7">
          <mxGeometry relative="1" as="geometry">
            <mxPoint x="450" y="480" as="targetPoint" />
            <mxPoint x="703.4000000000001" y="481.31999999999994" as="sourcePoint" />
          </mxGeometry>
        </mxCell>
        <mxCell id="n9aZLW_Md7DBoVtT5PN--11" value="alt" style="shape=umlFrame;whiteSpace=wrap;html=1;pointerEvents=0;" vertex="1" parent="1">
          <mxGeometry x="40" y="510" width="890" height="360" as="geometry" />
        </mxCell>
        <mxCell id="n9aZLW_Md7DBoVtT5PN--12" value="[usuario != null]" style="text;html=1;align=center;verticalAlign=middle;whiteSpace=wrap;rounded=0;" vertex="1" parent="1">
          <mxGeometry x="95" y="520" width="130" height="30" as="geometry" />
        </mxCell>
        <mxCell id="n9aZLW_Md7DBoVtT5PN--16" value="" style="endArrow=none;dashed=1;html=1;rounded=0;entryX=1.003;entryY=0.587;entryDx=0;entryDy=0;entryPerimeter=0;exitX=0;exitY=0.589;exitDx=0;exitDy=0;exitPerimeter=0;" edge="1" parent="1" source="n9aZLW_Md7DBoVtT5PN--11" target="n9aZLW_Md7DBoVtT5PN--11">
          <mxGeometry width="50" height="50" relative="1" as="geometry">
            <mxPoint x="40" y="850" as="sourcePoint" />
            <mxPoint x="40" y="1060" as="targetPoint" />
          </mxGeometry>
        </mxCell>
        <mxCell id="n9aZLW_Md7DBoVtT5PN--17" value="1.6 error(&quot;Usuario no encontrado&quot;)" style="html=1;verticalAlign=bottom;endArrow=open;dashed=1;endSize=8;exitX=-0.16;exitY=0.298;labelBackgroundColor=none;fontFamily=Verdana;fontSize=12;exitDx=0;exitDy=0;exitPerimeter=0;" edge="1" parent="1">
          <mxGeometry relative="1" as="geometry">
            <mxPoint x="85" y="790" as="targetPoint" />
            <mxPoint x="438" y="790" as="sourcePoint" />
          </mxGeometry>
        </mxCell>
        <mxCell id="n9aZLW_Md7DBoVtT5PN--19" value="1.3 usuario = actualizar(String nombre, String contraseñaNueva...)" style="html=1;verticalAlign=bottom;endArrow=block;labelBackgroundColor=none;fontFamily=Verdana;fontSize=12;edgeStyle=elbowEdgeStyle;elbow=vertical;entryX=-0.019;entryY=0.492;entryDx=0;entryDy=0;entryPerimeter=0;" edge="1" parent="1" target="n9aZLW_Md7DBoVtT5PN--8">
          <mxGeometry relative="1" as="geometry">
            <mxPoint x="450" y="570" as="sourcePoint" />
            <mxPoint x="710" y="570" as="targetPoint" />
            <mxPoint as="offset" />
          </mxGeometry>
        </mxCell>
        <mxCell id="n9aZLW_Md7DBoVtT5PN--20" value="1.4 resultado" style="html=1;verticalAlign=bottom;endArrow=open;dashed=1;endSize=8;exitX=0.032;exitY=0.618;labelBackgroundColor=none;fontFamily=Verdana;fontSize=12;exitDx=0;exitDy=0;exitPerimeter=0;" edge="1" parent="1" source="n9aZLW_Md7DBoVtT5PN--8">
          <mxGeometry x="0.0024" relative="1" as="geometry">
            <mxPoint x="450" y="610" as="targetPoint" />
            <mxPoint x="703.4000000000001" y="611.3199999999999" as="sourcePoint" />
            <mxPoint as="offset" />
          </mxGeometry>
        </mxCell>
        <mxCell id="n9aZLW_Md7DBoVtT5PN--21" value="1.5 resultado" style="html=1;verticalAlign=bottom;endArrow=open;dashed=1;endSize=8;exitX=-0.04;exitY=0.558;labelBackgroundColor=none;fontFamily=Verdana;fontSize=12;exitDx=0;exitDy=0;exitPerimeter=0;" edge="1" parent="1" source="n9aZLW_Md7DBoVtT5PN--2">
          <mxGeometry relative="1" as="geometry">
            <mxPoint x="85" y="660" as="targetPoint" />
            <mxPoint x="338.4000000000001" y="661.3199999999999" as="sourcePoint" />
          </mxGeometry>
        </mxCell>
        <mxCell id="n9aZLW_Md7DBoVtT5PN--22" value="[usuario == null]" style="text;html=1;align=center;verticalAlign=middle;whiteSpace=wrap;rounded=0;" vertex="1" parent="1">
          <mxGeometry x="85" y="730" width="130" height="30" as="geometry" />
        </mxCell>
      </root>
    </mxGraphModel>
  </diagram>
</mxfile>
